<svg width="300" height="300" viewBox="0 0 300 300" fill="none" xmlns="http://www.w3.org/2000/svg">
<g id="Frame 3" clip-path="url(#clip0_2_11)">
<g id="Component 2" filter="url(#filter0_d_2_11)">
<path id="M" d="M133.43 98.7988C129.094 94.4629 123.41 92.2949 116.379 92.2949C106.418 92.2949 97.6289 95.0781 90.0117 100.645C81.9258 106.445 77.8828 113.477 77.8828 121.738C77.8828 128.184 80.9004 134.277 86.9355 140.02C84.709 143.066 81.2227 145.645 76.4766 147.754C75.1875 148.34 73.8691 148.633 72.5215 148.633C71.1738 148.633 69.6211 148.223 67.8633 147.402C66.1641 146.582 64.6406 145.41 63.293 143.887C60.2461 140.43 58.7227 136.299 58.7227 131.494C58.7227 126.689 59.5723 122.236 61.2715 118.135C62.9707 114.033 65.2852 110.225 68.2148 106.709C71.1445 103.135 74.543 99.9121 78.4102 97.041C82.3359 94.1699 86.4961 91.6797 90.8906 89.5703C100.09 85.293 109.055 83.1543 117.785 83.1543C126.574 83.1543 133.898 84.7363 139.758 87.9004C153.352 95.2246 160.148 111.748 160.148 137.471C160.148 145.264 159.533 153.936 158.303 163.486C168.264 152.178 187.57 134.746 216.223 111.191C220.148 108.027 223.811 104.98 227.209 102.051C230.373 94.0234 232.98 88.75 235.031 86.2305C238.371 82.0703 241.242 79.9902 243.645 79.9902C246.047 79.9902 247.688 80.6055 248.566 81.8359C249.445 83.0078 249.885 84.1504 249.885 85.2637C249.885 86.3184 249.562 87.4316 248.918 88.6035C248.332 89.7754 247.57 91.0352 246.633 92.3828C244.699 95.0781 242.59 97.6855 240.305 100.205C234.504 131.67 231.604 163.398 231.604 195.391C231.604 206.816 226.887 214.609 217.453 218.77C213.176 220.645 208.547 221.582 203.566 221.582C196.066 221.582 189.621 219.795 184.23 216.221C182.121 214.814 180.48 213.203 179.309 211.387C185.695 206.055 195.041 188.066 207.346 157.422C212.268 145.117 216.809 132.578 220.969 119.805L203.654 137.119C181.682 159.092 165.773 176.787 155.93 190.205C155.051 197.119 152.59 204.414 148.547 212.09C146.027 216.719 143.947 219.795 142.307 221.318C140.725 222.842 139.523 223.604 138.703 223.604C133.195 223.604 127.365 221.963 121.213 218.682C115.061 215.4 111.984 212.324 111.984 209.453C111.984 205.586 115.617 199.463 122.883 191.084C124.875 188.74 126.896 186.543 128.947 184.492C137.971 164.746 142.482 145.996 142.482 128.242C142.482 126.133 142.307 122.998 141.955 118.838C141.662 114.678 140.432 110.312 138.264 105.742C130.061 132.695 118.312 157.656 103.02 180.625C92.2383 196.738 81.1934 208.135 69.8848 214.814C64.0254 218.271 58.166 220 52.3066 220C46.4473 220 41.6719 219.092 37.9805 217.275C30.3047 213.467 26.4668 207.051 26.4668 198.027C26.4668 192.168 27.9609 186.807 30.9492 181.943C32.5898 179.307 34.4355 177.373 36.4863 176.143C44.3965 181.768 52.3652 184.58 60.3926 184.58C72.2285 184.58 83.9766 178.105 95.6367 165.156C105.891 153.73 116.027 137.119 126.047 115.322C128.742 109.463 131.203 103.955 133.43 98.7988Z" fill="#BCDBDF"/>
<path id="Subtract" d="M146.836 215.104C145.394 217.535 144.123 219.361 143.023 220.583L138.962 223.578C138.872 223.593 138.786 223.603 138.703 223.603C137.665 223.603 136.615 223.545 135.554 223.429L146.836 215.104ZM150.749 207.6C150.247 208.706 149.71 209.819 149.139 210.941L132.794 222.998C132.062 222.851 131.326 222.678 130.583 222.477L150.749 207.6ZM153.632 200.234C153.225 201.482 152.772 202.742 152.272 204.013L128.221 221.756C127.397 221.475 126.566 221.164 125.73 220.819L153.632 200.234ZM231.491 198.327C231.413 199.335 231.296 200.311 231.136 201.255L203.582 221.581C203.577 221.581 203.572 221.582 203.567 221.582C202.401 221.582 201.261 221.538 200.146 221.452L231.491 198.327ZM230.471 204.21C230.084 205.57 229.598 206.853 229.012 208.06L212.016 220.599C210.437 220.982 208.816 221.255 207.153 221.413L230.471 204.21ZM231.604 195.39C231.604 195.522 231.599 195.653 231.598 195.783L197.252 221.121C196.439 220.997 195.641 220.849 194.857 220.676L231.608 193.563C231.606 194.172 231.604 194.781 231.604 195.39ZM231.653 188.291C231.64 189.223 231.63 190.155 231.622 191.088L192.388 220.032C191.517 219.769 190.665 219.472 189.833 219.142L231.653 188.291ZM101.806 182.414C100.745 183.962 99.6813 185.463 98.6155 186.92L53.8294 219.96C53.3219 219.986 52.8145 220 52.307 220C51.8264 220 51.353 219.991 50.887 219.978L101.806 182.414ZM155.325 193.856C155.108 194.922 154.855 195.997 154.566 197.08L123.638 219.896C122.924 219.561 122.205 219.204 121.482 218.823L155.325 193.856ZM108.298 172.385C107.223 174.129 106.127 175.862 105.012 177.584L47.7904 219.798C46.6829 219.694 45.6235 219.551 44.6116 219.368L108.298 172.385ZM94.2679 192.594C92.1433 195.235 90.0091 197.697 87.8646 199.981L63.6673 217.832C61.7133 218.577 59.76 219.131 57.806 219.492L94.2679 192.594ZM113.672 163.291C112.791 164.848 111.895 166.397 110.984 167.938L42.053 218.791C41.1789 218.552 40.3472 218.278 39.5579 217.968L113.672 163.291ZM231.747 183.092C231.726 183.993 231.708 184.894 231.692 185.796L187.74 218.222C187.026 217.875 186.328 217.501 185.646 217.101L231.747 183.092ZM158.41 186.901C157.545 188.03 156.718 189.131 155.93 190.205C155.895 190.479 155.856 190.753 155.817 191.028L119.571 217.768C118.991 217.432 118.446 217.096 117.933 216.763L158.41 186.901ZM117.931 155.471C117.29 156.692 116.641 157.909 115.983 159.121L37.4935 217.024C36.9066 216.718 36.343 216.397 35.803 216.058L117.931 155.471ZM231.879 178.376C231.856 179.11 231.831 179.844 231.811 180.578L183.85 215.961C183.344 215.608 182.866 215.243 182.417 214.865L231.879 178.376ZM169.256 173.66C167.066 176.196 165.018 178.632 163.112 180.968L116.214 215.565C115.553 215.066 114.97 214.571 114.464 214.082L169.256 173.66ZM122.128 147.134C121.423 148.595 120.706 150.049 119.976 151.497L34.0784 214.866C33.462 214.394 32.8836 213.895 32.3421 213.372L77.598 179.985C81.8548 177.704 86.0986 174.571 90.3323 170.591L122.128 147.134ZM232.081 172.986C232.041 173.939 232.002 174.892 231.967 175.846L180.953 213.48C180.432 212.924 179.962 212.346 179.546 211.743L232.081 172.986ZM183.076 158.336C180.412 161.185 177.883 163.937 175.491 166.595L113.149 212.587C112.674 211.932 112.345 211.287 112.16 210.651L183.076 158.336ZM30.9818 211.911C30.5218 211.36 30.097 210.785 29.7073 210.186L64.8304 184.275C66.536 184.041 68.2397 183.673 69.9417 183.169L30.9818 211.911ZM58.2513 184.512C58.9646 184.556 59.6786 184.58 60.3929 184.58C60.6244 184.58 60.8558 184.576 61.0872 184.571L28.7122 208.455C28.448 207.931 28.2091 207.39 27.9915 206.835L58.2513 184.512ZM198.39 142.42C195.803 145.043 193.308 147.601 190.906 150.094L112.092 208.236C112.232 207.4 112.509 206.479 112.921 205.473L198.39 142.42ZM232.333 167.672C232.285 168.593 232.239 169.515 232.196 170.436L183.956 206.024C184.985 204.566 186.064 202.88 187.198 200.97L232.333 167.672ZM52.3431 183.631C53.3367 183.865 54.331 184.056 55.3265 184.204L27.3323 204.855C27.1192 204.085 26.9481 203.288 26.8138 202.465L52.3431 183.631ZM207.648 133.125L115.004 201.471C116.076 199.722 117.432 197.797 119.074 195.694L218.229 122.544L207.648 133.125ZM47.4398 182.118C48.2593 182.431 49.079 182.715 49.8997 182.968L26.5472 200.195C26.4955 199.49 26.4671 198.767 26.4671 198.027C26.4671 197.88 26.4691 197.734 26.471 197.588L47.4398 182.118ZM232.653 162.165C232.591 163.143 232.531 164.122 232.475 165.101L189.599 196.732C190.377 195.301 191.178 193.776 192 192.156L232.653 162.165ZM42.9935 180.128C43.7605 180.522 44.5281 180.89 45.2962 181.232L26.6029 195.024C26.6996 193.962 26.8482 192.918 27.0491 191.89L42.9935 180.128ZM240.111 101.271C239.924 102.294 239.741 103.317 239.561 104.341L124.487 189.235C125.958 187.575 127.445 185.994 128.948 184.492C129.224 183.886 129.496 183.281 129.764 182.678L158.558 161.435C158.476 162.114 158.392 162.798 158.303 163.486C159.916 161.655 161.775 159.663 163.878 157.511L240.111 101.271ZM39.0013 177.833C39.6902 178.27 40.3789 178.687 41.0687 179.082L27.806 188.866C28.213 187.541 28.7133 186.248 29.306 184.985L39.0013 177.833ZM233.031 156.646C232.958 157.622 232.889 158.599 232.823 159.575L193.927 188.269C194.59 186.902 195.266 185.479 195.955 183.999L233.031 156.646ZM36.4866 176.142C36.7369 176.32 36.9872 176.495 37.2376 176.668L31.7806 180.693C33.2065 178.687 34.775 177.169 36.4866 176.142ZM233.463 151.197C233.383 152.142 233.306 153.087 233.232 154.033L197.667 180.27C198.249 178.985 198.838 177.661 199.437 176.3L233.463 151.197ZM159.252 155.021C159.136 156.245 159.008 157.484 158.869 158.74L131.326 179.06C132.009 177.428 132.66 175.801 133.281 174.182L159.252 155.021ZM233.905 146.255C233.832 147.024 233.762 147.793 233.693 148.562L201.018 172.668C201.46 171.641 201.906 170.594 202.358 169.527L233.905 146.255ZM159.711 149.442C159.644 150.411 159.57 151.391 159.488 152.383L134.538 170.788C134.985 169.543 135.413 168.303 135.822 167.067L159.711 149.442ZM234.468 140.599C234.363 141.599 234.261 142.599 234.161 143.599L203.859 165.955C204.4 164.653 204.947 163.324 205.501 161.969L234.468 140.599ZM160.007 144.095C159.97 145.005 159.925 145.926 159.873 146.857L136.846 163.846C137.193 162.709 137.525 161.577 137.84 160.448L160.007 144.095ZM125.743 139.338C125.144 140.68 124.535 142.017 123.917 143.348L97.9017 162.542C99.5572 160.57 101.209 158.463 102.859 156.221L125.743 139.338ZM235.084 135.015C234.972 135.984 234.862 136.953 234.755 137.922L206.93 158.449C207.067 158.108 207.208 157.766 207.346 157.422C207.712 156.508 208.073 155.591 208.435 154.675L235.084 135.015ZM160.134 139.384C160.125 140.104 160.111 140.832 160.092 141.567L138.663 157.376C138.887 156.5 139.096 155.625 139.3 154.753L160.134 139.384ZM160.109 134.163C160.13 135.066 160.142 135.982 160.146 136.909L139.955 151.805C140.183 150.72 140.396 149.638 140.592 148.56L160.109 134.163ZM235.404 132.314L209.788 151.212C210.187 150.183 210.583 149.154 210.976 148.122L235.703 129.88C235.601 130.691 235.502 131.503 235.404 132.314ZM128.652 132.575C128.218 133.62 127.779 134.661 127.334 135.699L106.464 151.096C107.37 149.751 108.275 148.367 109.179 146.94L128.652 132.575ZM85.3958 138.476C85.8827 138.99 86.3929 139.502 86.9271 140.011L76.3704 147.798C75.1148 148.352 73.8329 148.633 72.5218 148.633C72.2546 148.633 71.979 148.616 71.6956 148.584L85.3958 138.476ZM82.9739 135.645C83.3193 136.097 83.6833 136.546 84.0638 136.993L69.1986 147.96C68.7676 147.802 68.3225 147.616 67.8636 147.402C67.6994 147.323 67.5372 147.239 67.3763 147.153L82.9739 135.645ZM248.694 89.0389C248.142 90.0857 247.455 91.2006 246.633 92.3826C245.743 93.6239 244.813 94.8456 243.848 96.0496L174.468 147.233C180.953 141.196 188.744 134.302 197.843 126.552L248.694 89.0389ZM80.6566 132.115C81.0109 132.758 81.3984 133.396 81.8206 134.031L65.5823 146.011C64.9836 145.561 64.4117 145.058 63.8665 144.502L80.6566 132.115ZM159.893 129.192C159.947 130.035 159.992 130.89 160.029 131.756L141.07 145.743C141.228 144.746 141.371 143.751 141.502 142.76L159.893 129.192ZM236.468 124.076C236.327 125.102 236.19 126.128 236.055 127.155L212.262 144.708C212.737 143.437 213.21 142.165 213.677 140.889L236.468 124.076ZM78.9476 128.246C79.1791 128.94 79.4502 129.628 79.7571 130.313L62.5589 143.002C62.1126 142.431 61.7047 141.843 61.3363 141.238L78.9476 128.246ZM131.609 125.153C131.11 126.458 130.601 127.758 130.084 129.053L111.954 142.428C112.894 140.855 113.833 139.238 114.77 137.576L131.609 125.153ZM159.521 124.789C159.593 125.47 159.658 126.159 159.718 126.856L141.832 140.051C141.919 139.255 141.994 138.46 142.063 137.668L159.521 124.789ZM78.0374 124.24C78.1188 124.897 78.2333 125.55 78.3792 126.2L60.3939 139.469C60.1369 138.912 59.9089 138.342 59.7113 137.76L78.0374 124.24ZM237.287 118.342C237.14 119.336 236.995 120.331 236.853 121.326L214.897 137.524C215.33 136.321 215.76 135.116 216.186 133.909L237.287 118.342ZM78.0384 118.999C77.9362 119.896 77.8831 120.809 77.8831 121.738C77.8831 121.788 77.8847 121.838 77.8851 121.888L59.1497 135.709C58.9774 134.896 58.8573 134.059 58.7894 133.2L78.0384 118.999ZM158.891 120.013C159.022 120.835 159.142 121.672 159.252 122.521L142.263 135.055C142.324 134.092 142.371 133.132 142.407 132.175L158.891 120.013ZM134.199 118.112C133.769 119.327 133.331 120.538 132.887 121.745L117.058 133.422C117.826 131.997 118.595 130.543 119.362 129.058L134.199 118.112ZM79.7376 112.615C79.2392 113.766 78.8416 114.948 78.5443 116.16L58.7298 130.778C58.7465 129.84 58.7958 128.916 58.8782 128.005L79.7376 112.615ZM238.088 113.134C237.959 113.944 237.832 114.755 237.707 115.566L217.345 130.588C217.677 129.628 218.007 128.668 218.334 127.706L238.088 113.134ZM158.039 115.513C158.207 116.271 158.364 117.043 158.511 117.828L142.471 129.661C142.477 129.187 142.483 128.714 142.483 128.242C142.483 127.862 142.475 127.449 142.463 127.003L158.039 115.513ZM100.03 95.1795C96.4913 96.5282 93.1521 98.3497 90.012 100.644C86.6942 103.025 84.0574 105.613 82.1009 108.407L59.2288 125.279C59.3738 124.419 59.5508 123.572 59.7581 122.738L113.142 83.3563C114.198 83.2658 115.251 83.2056 116.301 83.1766L100.03 95.1795ZM136.58 111.086C136.176 112.329 135.763 113.567 135.344 114.802L121.364 125.116C122.079 123.681 122.791 122.219 123.505 120.731L136.58 111.086ZM157.059 111.618C157.227 112.207 157.388 112.805 157.542 113.413L142.366 124.609C142.331 123.968 142.289 123.282 142.24 122.551L157.059 111.618ZM239.071 107.168C238.891 108.223 238.714 109.279 238.54 110.335L219.444 124.423C219.852 123.201 220.256 121.977 220.658 120.752L239.071 107.168ZM155.68 107.395C155.948 108.116 156.202 108.853 156.446 109.605L142.067 120.213C142.031 119.768 141.995 119.309 141.955 118.838C141.927 118.429 141.885 118.02 141.838 117.607L155.68 107.395ZM60.72 119.562C60.8928 119.082 61.0766 118.606 61.2718 118.135C61.6419 117.241 62.0425 116.362 62.471 115.497L103.951 84.8973C105.689 84.4657 107.418 84.1147 109.139 83.8436L60.72 119.562ZM149.597 96.242C150.052 96.8226 150.491 97.4234 150.916 98.0438L138.822 106.967C138.642 106.56 138.458 106.151 138.264 105.742C138.049 106.45 137.829 107.156 137.609 107.861L125.293 116.947C125.544 116.408 125.797 115.867 126.047 115.322C126.445 114.457 126.834 113.598 127.222 112.749L149.597 96.242ZM154.03 103.482C154.34 104.134 154.637 104.803 154.924 105.487L141.503 115.388C141.361 114.633 141.191 113.871 140.99 113.102L154.03 103.482ZM64.8724 111.26C65.8799 109.692 66.9937 108.175 68.2152 106.709C68.6477 106.181 69.0912 105.662 69.5443 105.149L90.2171 89.8992C90.4412 89.7891 90.6656 89.6783 90.8909 89.5701C93.4014 88.4029 95.8949 87.3964 98.3704 86.5477L64.8724 111.26ZM151.995 99.7137C152.385 100.352 152.761 101.01 153.122 101.686L140.395 111.075C140.157 110.341 139.894 109.6 139.605 108.854L151.995 99.7137ZM146.843 93.1444C147.352 93.6478 147.846 94.1717 148.326 94.7147L128.902 109.045C129.508 107.699 130.101 106.373 130.68 105.068L146.843 93.1444ZM249.423 83.2606C249.73 83.9387 249.885 84.6059 249.885 85.2635C249.885 85.4111 249.876 85.5599 249.864 85.7098L223.921 104.847C225.042 103.903 226.14 102.972 227.209 102.051C227.684 100.846 228.146 99.7042 228.596 98.6238L249.423 83.2606ZM143.981 90.6395C144.452 91.0028 144.911 91.3811 145.362 91.7723L132.289 101.416C132.675 100.533 133.057 99.6615 133.43 98.7987C133.358 98.7263 133.283 98.6559 133.21 98.5848L143.981 90.6395ZM140.234 88.1649C140.937 88.5595 141.622 88.9786 142.287 89.4237L131.695 97.2381C131.083 96.7442 130.448 96.2878 129.79 95.868L140.234 88.1649ZM246.403 80.3592C247.232 80.6233 247.884 81.0296 248.361 81.5789L230.159 95.0057C230.857 93.4575 231.52 92.0807 232.148 90.8748L246.403 80.3592ZM135.991 86.1649C136.772 86.4696 137.532 86.7972 138.27 87.1483L127.902 94.7957C127.167 94.4273 126.407 94.1003 125.621 93.8133L135.991 86.1649ZM119.639 83.1795C120.79 83.2097 121.914 83.2692 123.012 83.3563L110.419 92.6453C108.813 92.8381 107.24 93.1092 105.701 93.4617L119.639 83.1795ZM131.573 84.7459C132.308 84.9358 133.028 85.1422 133.732 85.366L123.259 93.0906C122.493 92.8999 121.706 92.743 120.897 92.6209L131.573 84.7459ZM125.938 83.6639C126.991 83.803 128.017 83.9705 129.017 84.1668L117.946 92.3328C117.431 92.3082 116.909 92.2948 116.379 92.2947C115.637 92.2947 114.901 92.3117 114.171 92.3426L125.938 83.6639ZM234.937 86.3524C234.969 86.3116 235 86.2697 235.032 86.2303C238.331 82.1208 241.173 80.0428 243.557 79.993L234.937 86.3524Z" fill="#235784"/>
</g>
<g id="M_2" filter="url(#filter1_d_2_11)">
<path d="M144.43 84.7988C140.094 80.4629 134.41 78.2949 127.379 78.2949C117.418 78.2949 108.629 81.0781 101.012 86.6445C92.9258 92.4453 88.8828 99.4766 88.8828 107.738C88.8828 114.184 91.9004 120.277 97.9355 126.02C95.709 129.066 92.2227 131.645 87.4766 133.754C86.1875 134.34 84.8691 134.633 83.5215 134.633C82.1738 134.633 80.6211 134.223 78.8633 133.402C77.1641 132.582 75.6406 131.41 74.293 129.887C71.2461 126.43 69.7227 122.299 69.7227 117.494C69.7227 112.689 70.5723 108.236 72.2715 104.135C73.9707 100.033 76.2852 96.2246 79.2148 92.709C82.1445 89.1348 85.543 85.9121 89.4102 83.041C93.3359 80.1699 97.4961 77.6797 101.891 75.5703C111.09 71.293 120.055 69.1543 128.785 69.1543C137.574 69.1543 144.898 70.7363 150.758 73.9004C164.352 81.2246 171.148 97.748 171.148 123.471C171.148 131.264 170.533 139.936 169.303 149.486C179.264 138.178 198.57 120.746 227.223 97.1914C231.148 94.0273 234.811 90.9805 238.209 88.0508C241.373 80.0234 243.98 74.75 246.031 72.2305C249.371 68.0703 252.242 65.9902 254.645 65.9902C257.047 65.9902 258.688 66.6055 259.566 67.8359C260.445 69.0078 260.885 70.1504 260.885 71.2637C260.885 72.3184 260.562 73.4316 259.918 74.6035C259.332 75.7754 258.57 77.0352 257.633 78.3828C255.699 81.0781 253.59 83.6855 251.305 86.2051C245.504 117.67 242.604 149.398 242.604 181.391C242.604 192.816 237.887 200.609 228.453 204.77C224.176 206.645 219.547 207.582 214.566 207.582C207.066 207.582 200.621 205.795 195.23 202.221C193.121 200.814 191.48 199.203 190.309 197.387C196.695 192.055 206.041 174.066 218.346 143.422C223.268 131.117 227.809 118.578 231.969 105.805L214.654 123.119C192.682 145.092 176.773 162.787 166.93 176.205C166.051 183.119 163.59 190.414 159.547 198.09C157.027 202.719 154.947 205.795 153.307 207.318C151.725 208.842 150.523 209.604 149.703 209.604C144.195 209.604 138.365 207.963 132.213 204.682C126.061 201.4 122.984 198.324 122.984 195.453C122.984 191.586 126.617 185.463 133.883 177.084C135.875 174.74 137.896 172.543 139.947 170.492C148.971 150.746 153.482 131.996 153.482 114.242C153.482 112.133 153.307 108.998 152.955 104.838C152.662 100.678 151.432 96.3125 149.264 91.7422C141.061 118.695 129.312 143.656 114.02 166.625C103.238 182.738 92.1934 194.135 80.8848 200.814C75.0254 204.271 69.166 206 63.3066 206C57.4473 206 52.6719 205.092 48.9805 203.275C41.3047 199.467 37.4668 193.051 37.4668 184.027C37.4668 178.168 38.9609 172.807 41.9492 167.943C43.5898 165.307 45.4355 163.373 47.4863 162.143C55.3965 167.768 63.3652 170.58 71.3926 170.58C83.2285 170.58 94.9766 164.105 106.637 151.156C116.891 139.73 127.027 123.119 137.047 101.322C139.742 95.4629 142.203 89.9551 144.43 84.7988Z" fill="#235784"/>
</g>
<g id="M_3" filter="url(#filter2_d_2_11)">
<path d="M150.43 79.7988C146.094 75.4629 140.41 73.2949 133.379 73.2949C123.418 73.2949 114.629 76.0781 107.012 81.6445C98.9258 87.4453 94.8828 94.4766 94.8828 102.738C94.8828 109.184 97.9004 115.277 103.936 121.02C101.709 124.066 98.2227 126.645 93.4766 128.754C92.1875 129.34 90.8691 129.633 89.5215 129.633C88.1738 129.633 86.6211 129.223 84.8633 128.402C83.1641 127.582 81.6406 126.41 80.293 124.887C77.2461 121.43 75.7227 117.299 75.7227 112.494C75.7227 107.689 76.5723 103.236 78.2715 99.1348C79.9707 95.0332 82.2852 91.2246 85.2148 87.709C88.1445 84.1348 91.543 80.9121 95.4102 78.041C99.3359 75.1699 103.496 72.6797 107.891 70.5703C117.09 66.293 126.055 64.1543 134.785 64.1543C143.574 64.1543 150.898 65.7363 156.758 68.9004C170.352 76.2246 177.148 92.748 177.148 118.471C177.148 126.264 176.533 134.936 175.303 144.486C185.264 133.178 204.57 115.746 233.223 92.1914C237.148 89.0273 240.811 85.9805 244.209 83.0508C247.373 75.0234 249.98 69.75 252.031 67.2305C255.371 63.0703 258.242 60.9902 260.645 60.9902C263.047 60.9902 264.688 61.6055 265.566 62.8359C266.445 64.0078 266.885 65.1504 266.885 66.2637C266.885 67.3184 266.562 68.4316 265.918 69.6035C265.332 70.7754 264.57 72.0352 263.633 73.3828C261.699 76.0781 259.59 78.6855 257.305 81.2051C251.504 112.67 248.604 144.398 248.604 176.391C248.604 187.816 243.887 195.609 234.453 199.77C230.176 201.645 225.547 202.582 220.566 202.582C213.066 202.582 206.621 200.795 201.23 197.221C199.121 195.814 197.48 194.203 196.309 192.387C202.695 187.055 212.041 169.066 224.346 138.422C229.268 126.117 233.809 113.578 237.969 100.805L220.654 118.119C198.682 140.092 182.773 157.787 172.93 171.205C172.051 178.119 169.59 185.414 165.547 193.09C163.027 197.719 160.947 200.795 159.307 202.318C157.725 203.842 156.523 204.604 155.703 204.604C150.195 204.604 144.365 202.963 138.213 199.682C132.061 196.4 128.984 193.324 128.984 190.453C128.984 186.586 132.617 180.463 139.883 172.084C141.875 169.74 143.896 167.543 145.947 165.492C154.971 145.746 159.482 126.996 159.482 109.242C159.482 107.133 159.307 103.998 158.955 99.8379C158.662 95.6777 157.432 91.3125 155.264 86.7422C147.061 113.695 135.312 138.656 120.02 161.625C109.238 177.738 98.1934 189.135 86.8848 195.814C81.0254 199.271 75.166 201 69.3066 201C63.4473 201 58.6719 200.092 54.9805 198.275C47.3047 194.467 43.4668 188.051 43.4668 179.027C43.4668 173.168 44.9609 167.807 47.9492 162.943C49.5898 160.307 51.4355 158.373 53.4863 157.143C61.3965 162.768 69.3652 165.58 77.3926 165.58C89.2285 165.58 100.977 159.105 112.637 146.156C122.891 134.73 133.027 118.119 143.047 96.3223C145.742 90.4629 148.203 84.9551 150.43 79.7988Z" fill="#BCDBDF"/>
</g>
</g>
<defs>
<filter id="filter0_d_2_11" x="-15" y="38" width="306" height="270" filterUnits="userSpaceOnUse" color-interpolation-filters="sRGB">
<feFlood flood-opacity="0" result="BackgroundImageFix"/>
<feColorMatrix in="SourceAlpha" type="matrix" values="0 0 0 0 0 0 0 0 0 0 0 0 0 0 0 0 0 0 127 0" result="hardAlpha"/>
<feOffset dy="4"/>
<feGaussianBlur stdDeviation="2"/>
<feComposite in2="hardAlpha" operator="out"/>
<feColorMatrix type="matrix" values="0 0 0 0 0 0 0 0 0 0 0 0 0 0 0 0 0 0 0.25 0"/>
<feBlend mode="normal" in2="BackgroundImageFix" result="effect1_dropShadow_2_11"/>
<feBlend mode="normal" in="SourceGraphic" in2="effect1_dropShadow_2_11" result="shape"/>
</filter>
<filter id="filter1_d_2_11" x="33.4668" y="65.9902" width="231.418" height="151.613" filterUnits="userSpaceOnUse" color-interpolation-filters="sRGB">
<feFlood flood-opacity="0" result="BackgroundImageFix"/>
<feColorMatrix in="SourceAlpha" type="matrix" values="0 0 0 0 0 0 0 0 0 0 0 0 0 0 0 0 0 0 127 0" result="hardAlpha"/>
<feOffset dy="4"/>
<feGaussianBlur stdDeviation="2"/>
<feComposite in2="hardAlpha" operator="out"/>
<feColorMatrix type="matrix" values="0 0 0 0 0 0 0 0 0 0 0 0 0 0 0 0 0 0 0.25 0"/>
<feBlend mode="normal" in2="BackgroundImageFix" result="effect1_dropShadow_2_11"/>
<feBlend mode="normal" in="SourceGraphic" in2="effect1_dropShadow_2_11" result="shape"/>
</filter>
<filter id="filter2_d_2_11" x="39.4668" y="60.9902" width="231.418" height="151.613" filterUnits="userSpaceOnUse" color-interpolation-filters="sRGB">
<feFlood flood-opacity="0" result="BackgroundImageFix"/>
<feColorMatrix in="SourceAlpha" type="matrix" values="0 0 0 0 0 0 0 0 0 0 0 0 0 0 0 0 0 0 127 0" result="hardAlpha"/>
<feOffset dy="4"/>
<feGaussianBlur stdDeviation="2"/>
<feComposite in2="hardAlpha" operator="out"/>
<feColorMatrix type="matrix" values="0 0 0 0 0 0 0 0 0 0 0 0 0 0 0 0 0 0 0.25 0"/>
<feBlend mode="normal" in2="BackgroundImageFix" result="effect1_dropShadow_2_11"/>
<feBlend mode="normal" in="SourceGraphic" in2="effect1_dropShadow_2_11" result="shape"/>
</filter>
<clipPath id="clip0_2_11">
<rect width="300" height="300" fill="white"/>
</clipPath>
</defs>
</svg>
