<svg width="30" height="30" viewBox="0 0 30 30" fill="none" xmlns="http://www.w3.org/2000/svg">
<path d="M15.0907 26.0422C16.0419 26.0422 16.8131 25.7243 16.8131 25.3322C16.8131 24.9401 16.0419 24.6222 15.0907 24.6222C14.1394 24.6222 13.3683 24.9401 13.3683 25.3322C13.3683 25.7243 14.1394 26.0422 15.0907 26.0422Z" fill="#DDDDDD"/>
<path d="M16.2339 12.6849L15.8334 24.7804C15.8192 25.208 15.461 25.5432 15.0335 25.529C14.6239 25.5154 14.299 25.1839 14.2847 24.7804L13.8842 12.6849H16.2339Z" fill="#C6C6C6"/>
<path d="M16.234 12.6849L16.1429 15.4356L15.8334 24.7805C15.8191 25.208 15.461 25.5432 15.0334 25.529C14.723 25.5187 14.4613 25.3259 14.3466 25.0574C14.4172 25.0816 14.4925 25.0959 14.5709 25.0985C14.9984 25.1127 15.3565 24.7775 15.3708 24.3498L15.6637 15.5021C15.4641 15.5219 15.2623 15.5318 15.0591 15.5318C14.6917 15.5318 14.3293 15.4993 13.9751 15.4356L13.884 12.685H16.234V12.6849Z" fill="#ADADAD"/>
<path d="M21.118 9.0589C21.118 10.6773 20.4877 12.1989 19.3433 13.3433C18.1989 14.4877 16.6773 15.1178 15.0591 15.1178C13.4407 15.1178 11.9191 14.4877 10.7747 13.3433C9.63031 12.1989 9 10.6773 9 9.0589C9 7.44046 9.63033 5.91908 10.7747 4.7747C11.9191 3.63033 13.4407 3 15.0591 3C16.6773 3 18.1989 3.63033 19.3433 4.7747C20.4877 5.91908 21.118 7.44046 21.118 9.0589Z" fill="#E23D3D"/>
<path d="M21.1181 9.05891C21.1181 10.6773 20.4877 12.1989 19.3434 13.3433C18.199 14.4877 16.6773 15.1178 15.0592 15.1178C13.4408 15.1178 11.9191 14.4877 10.7748 13.3433C9.96383 12.5323 9.4109 11.5318 9.15771 10.4417C9.42752 11.0381 9.80599 11.5867 10.2827 12.0633C11.3218 13.1024 12.7035 13.6745 14.1731 13.6745C15.6425 13.6745 17.0242 13.1024 18.0633 12.0633C19.1025 11.0242 19.6748 9.64247 19.6748 8.17284C19.6748 6.70321 19.1025 5.32178 18.0633 4.28267C17.5867 3.80599 17.0381 3.42752 16.4417 3.15771C17.5319 3.4109 18.5324 3.96369 19.3433 4.77476C20.4877 5.91908 21.1181 7.4405 21.1181 9.05891Z" fill="#BF3636"/>
<path d="M15.1378 3.97571V4.80095C15.1378 4.94542 15.0245 5.06378 14.8802 5.07148C12.9374 5.17519 11.3042 6.44465 10.6672 8.19298C10.5934 8.39568 10.3841 8.51539 10.1723 8.4744C9.92978 8.42748 9.77451 8.18943 9.82827 7.94835C10.3509 5.6051 12.3852 3.8318 14.8543 3.70501C15.0087 3.69708 15.1378 3.82114 15.1378 3.97571Z" fill="#F46D5B"/>
<path d="M14.8157 24.1397C14.6673 24.1397 14.5451 24.0213 14.5412 23.872L14.4499 20.3298C14.446 20.1781 14.5658 20.052 14.7175 20.0481C14.7199 20.048 14.7223 20.048 14.7247 20.048C14.8732 20.048 14.9954 20.1664 14.9992 20.3156L15.0905 23.8579C15.0944 24.0095 14.9746 24.1357 14.8229 24.1396C14.8205 24.1397 14.8181 24.1397 14.8157 24.1397Z" fill="#D8D6D6"/>
</svg>
