<svg width="100" height="100" viewBox="0 0 100 100" fill="none" xmlns="http://www.w3.org/2000/svg">
<path d="M18.3334 2.5H81.6668C91.7709 2.5 100 10.7291 100 20.8334V81.6668C100 91.7709 91.7709 100 81.6668 100H18.3334C8.2293 100 0 91.7709 0 81.6666V20.8334C0 10.7291 8.2293 2.5 18.3334 2.5Z" fill="#9F7FFF"/>
<path d="M19.1666 6.6665H80.8332C89.1666 6.6665 95.8332 13.3331 95.8332 21.6665V80.8331C95.8332 89.1665 89.1666 95.8331 80.8332 95.8331H19.1666C10.8332 95.8331 4.16663 89.1665 4.16663 80.8331V21.6665C4.16663 13.3333 10.8332 6.6665 19.1666 6.6665Z" fill="#130732"/>
<path d="M32.2264 56.8252V67.7979C31.3174 66.8809 30.4691 65.8977 29.6873 64.8543V56.8254C29.6873 56.1242 30.2557 55.5559 30.9568 55.5559C31.658 55.5559 32.2264 56.124 32.2264 56.8252ZM40.9113 48.9119C40.2102 48.9119 39.6418 49.4803 39.6418 50.1814V73.0865C40.465 73.4787 41.3119 73.8283 42.1809 74.1328V50.1816C42.1809 49.4803 41.6125 48.9119 40.9113 48.9119ZM50.6508 47.3725C49.9496 47.3725 49.3813 47.9408 49.3813 48.642V75.5414C50.0238 75.5748 50.6731 75.5875 51.3299 75.5742C51.5279 75.5701 51.7242 75.5627 51.9203 75.5549V48.642C51.9203 47.941 51.352 47.3725 50.6508 47.3725ZM60.5828 40.7174C59.8816 40.7174 59.3133 41.2857 59.3133 41.9869V74.2127C60.1908 73.9129 61.0377 73.5672 61.8523 73.1766V41.9869C61.8523 41.2857 61.2838 40.7174 60.5828 40.7174ZM71.5549 45.8578C71.5549 45.1566 70.9865 44.5883 70.2854 44.5883C69.5842 44.5883 69.0158 45.1566 69.0158 45.8578V67.7857C69.9473 66.7471 70.7938 65.6199 71.5549 64.416V45.8578ZM74.6602 38.4766C74.9082 38.2676 74.9395 37.8984 74.7324 37.6504C74.5234 37.4043 74.1543 37.3711 73.9063 37.5801L70.7637 40.2227L62.584 32.6562L46.1524 44.3633L38.7305 41.5469L30.377 51.0059L25.0039 52.0547C24.6875 52.1152 24.4785 52.4238 24.541 52.7422C24.5957 53.0215 24.8418 53.2148 25.1152 53.2148C25.1524 53.2148 25.1914 53.2109 25.2285 53.2051L30.9922 52.0801L39.0723 42.9297L46.3223 45.6816L62.4863 34.1641L70.7266 41.7852L74.6602 38.4766Z" fill="white"/>
<path opacity="0.15" d="M32.2264 56.8252V67.7979C31.3174 66.8809 30.4691 65.8977 29.6873 64.8543V56.8254C29.6873 56.1242 30.2557 55.5559 30.9568 55.5559C31.658 55.5559 32.2264 56.124 32.2264 56.8252ZM40.9113 48.9119C40.2102 48.9119 39.6418 49.4803 39.6418 50.1814V73.0865C40.465 73.4787 41.3119 73.8283 42.1809 74.1328V50.1816C42.1809 49.4803 41.6125 48.9119 40.9113 48.9119ZM50.6508 47.3725C49.9496 47.3725 49.3813 47.9408 49.3813 48.642V75.5414C50.0238 75.5748 50.6731 75.5875 51.3299 75.5742C51.5279 75.5701 51.7242 75.5627 51.9203 75.5549V48.642C51.9203 47.941 51.352 47.3725 50.6508 47.3725ZM60.5828 40.7174C59.8816 40.7174 59.3133 41.2857 59.3133 41.9869V74.2127C60.1908 73.9129 61.0377 73.5672 61.8523 73.1766V41.9869C61.8523 41.2857 61.2838 40.7174 60.5828 40.7174ZM71.5549 45.8578C71.5549 45.1566 70.9865 44.5883 70.2854 44.5883C69.5842 44.5883 69.0158 45.1566 69.0158 45.8578V67.7857C69.9473 66.7471 70.7938 65.6199 71.5549 64.416V45.8578ZM74.6602 38.4766C74.9082 38.2676 74.9395 37.8984 74.7324 37.6504C74.5234 37.4043 74.1543 37.3711 73.9063 37.5801L70.7637 40.2227L62.584 32.6562L46.1524 44.3633L38.7305 41.5469L30.377 51.0059L25.0039 52.0547C24.6875 52.1152 24.4785 52.4238 24.541 52.7422C24.5957 53.0215 24.8418 53.2148 25.1152 53.2148C25.1524 53.2148 25.1914 53.2109 25.2285 53.2051L30.9922 52.0801L39.0723 42.9297L46.3223 45.6816L62.4863 34.1641L70.7266 41.7852L74.6602 38.4766Z" fill="#9F7FFF"/>
</svg>
