<svg width="100" height="100" viewBox="0 0 100 100" fill="none" xmlns="http://www.w3.org/2000/svg">
<g clip-path="url(#clip0_213_210)">
<path d="M0 0H100V100H0V0Z" fill="url(#paint0_radial_213_210)"/>
<path d="M6.93359 50C6.93359 73.7891 26.2109 93.0664 50 93.0664C73.7891 93.0664 93.0664 73.7891 93.0664 50C93.0664 26.2109 73.7891 6.93359 50 6.93359C26.2109 6.93359 6.93359 26.2109 6.93359 50ZM11.3281 49.9512C11.3574 28.5938 28.6914 11.2988 50.0488 11.3281C71.4062 11.3574 88.7012 28.6914 88.6719 50.0488C88.6426 71.4062 71.3379 88.6719 50 88.6719C28.6621 88.6719 11.3184 71.3281 11.3281 49.9609V49.9512Z" fill="#FF7618"/>
<path d="M76.8555 50.0002C76.854 48.2337 76.356 46.5033 75.4184 45.0063C74.4808 43.5092 73.1413 42.3058 71.5528 41.5334C72.319 39.703 72.5234 37.6861 72.14 35.7393C71.7565 33.7925 70.8026 32.0037 69.3995 30.6007C67.9965 29.1976 66.2077 28.2436 64.2609 27.8602C62.314 27.4768 60.2971 27.6812 58.4668 28.4474C57.6947 26.8589 56.4912 25.5197 54.994 24.5827C53.4968 23.6458 51.7662 23.1489 50 23.1489C48.2338 23.1489 46.5032 23.6458 45.006 24.5827C43.5088 25.5197 42.3054 26.8589 41.5332 28.4474C39.7029 27.6812 37.686 27.4768 35.7392 27.8602C33.7924 28.2436 32.0036 29.1976 30.6005 30.6007C29.1975 32.0037 28.2435 33.7925 27.8601 35.7393C27.4767 37.6861 27.6811 39.703 28.4473 41.5334C26.8588 42.3055 25.5196 43.5089 24.5826 45.0061C23.6457 46.5033 23.1488 48.2339 23.1488 50.0002C23.1488 51.7664 23.6457 53.497 24.5826 54.9942C25.5196 56.4914 26.8588 57.6948 28.4473 58.4669C27.6811 60.2973 27.4767 62.3142 27.8601 64.261C28.2435 66.2078 29.1975 67.9966 30.6005 69.3997C32.0036 70.8027 33.7924 71.7567 35.7392 72.1401C37.686 72.5235 39.7029 72.3191 41.5332 71.5529C42.3054 73.1414 43.5088 74.4806 45.006 75.4176C46.5032 76.3545 48.2338 76.8514 50 76.8514C51.7662 76.8514 53.4968 76.3545 54.994 75.4176C56.4912 74.4806 57.6947 73.1414 58.4668 71.5529C60.2971 72.3191 62.314 72.5235 64.2609 72.1401C66.2077 71.7567 67.9965 70.8027 69.3995 69.3997C70.8026 67.9966 71.7565 66.2078 72.14 64.261C72.5234 62.3142 72.319 60.2973 71.5528 58.4669C73.1413 57.6945 74.4808 56.4911 75.4184 54.994C76.356 53.497 76.854 51.7666 76.8555 50.0002ZM67.6074 32.3927C68.6757 33.4674 69.3925 34.8411 69.6628 36.3321C69.9331 37.8231 69.7442 39.3611 69.1211 40.7423C68.567 40.6406 68.0049 40.5883 67.4414 40.5861C65.3132 40.5835 63.273 39.7369 61.7681 38.2321C60.2632 36.7272 59.4167 34.6869 59.4141 32.5587C59.4119 31.9953 59.3596 31.4332 59.2578 30.8791C60.6391 30.256 62.1771 30.0671 63.668 30.3374C65.159 30.6077 66.5328 31.3244 67.6074 32.3927ZM57.9785 68.3791C57.658 68.1436 57.3545 67.8858 57.0703 67.6076C55.195 65.7327 52.6518 64.6794 50 64.6794C47.3482 64.6794 44.805 65.7327 42.9297 67.6076C42.6455 67.8858 42.3421 68.1436 42.0215 68.3791C41.9819 68.0681 41.9624 67.755 41.9629 67.4416C41.9603 64.9482 40.9687 62.5577 39.2056 60.7946C37.4425 59.0315 35.052 58.0398 32.5586 58.0373C32.2452 58.0378 31.932 58.0182 31.6211 57.9787C31.8566 57.6581 32.1144 57.3546 32.3926 57.0705C34.2675 55.1952 35.3208 52.6519 35.3208 50.0002C35.3208 47.3484 34.2675 44.8051 32.3926 42.9298C32.1144 42.6457 31.8566 42.3422 31.6211 42.0216C31.932 41.9821 32.2452 41.9625 32.5586 41.963C35.052 41.9605 37.4425 40.9688 39.2056 39.2057C40.9687 37.4426 41.9603 35.0521 41.9629 32.5587C41.9624 32.2453 41.9819 31.9322 42.0215 31.6212C42.3421 31.8567 42.6455 32.1145 42.9297 32.3927C44.805 34.2676 47.3482 35.3209 50 35.3209C52.6518 35.3209 55.195 34.2676 57.0703 32.3927C57.3545 32.1145 57.658 31.8567 57.9785 31.6212C58.0181 31.9322 58.0377 32.2453 58.0371 32.5587C58.0397 35.0521 59.0314 37.4426 60.7944 39.2057C62.5575 40.9688 64.9481 41.9605 67.4414 41.963C67.7549 41.9625 68.068 41.9821 68.3789 42.0216C68.1435 42.3422 67.8857 42.6457 67.6074 42.9298C65.7325 44.8051 64.6793 47.3484 64.6793 50.0002C64.6793 52.6519 65.7325 55.1952 67.6074 57.0705C67.8857 57.3546 68.1435 57.6581 68.3789 57.9787C68.068 58.0182 67.7549 58.0378 67.4414 58.0373C64.9481 58.0398 62.5575 59.0315 60.7944 60.7946C59.0314 62.5577 58.0397 64.9482 58.0371 67.4416C58.0377 67.755 58.0181 68.0681 57.9785 68.3791ZM50 24.5216C51.5111 24.5217 52.9916 24.9478 54.2715 25.751C55.5515 26.5542 56.579 27.702 57.2364 29.0627C56.518 29.4903 55.8554 30.0052 55.2637 30.5959C53.8668 31.9901 51.9737 32.7732 50 32.7732C48.0264 32.7732 46.1333 31.9901 44.7364 30.5959C44.1447 30.0052 43.4821 29.4903 42.7637 29.0627C43.421 27.702 44.4486 26.5542 45.7285 25.751C47.0085 24.9478 48.4889 24.5217 50 24.5216ZM32.3926 32.3927C33.4673 31.3244 34.841 30.6077 36.332 30.3374C37.823 30.0671 39.3609 30.256 40.7422 30.8791C40.6405 31.4332 40.5882 31.9953 40.586 32.5587C40.5834 34.6869 39.7368 36.7272 38.232 38.2321C36.7271 39.7369 34.6868 40.5835 32.5586 40.5861C31.9952 40.5883 31.4331 40.6406 30.8789 40.7423C30.2559 39.3611 30.067 37.8231 30.3373 36.3321C30.6076 34.8411 31.3243 33.4674 32.3926 32.3927ZM24.5215 50.0002C24.5216 48.4891 24.9477 47.0086 25.7509 45.7287C26.5541 44.4487 27.7019 43.4211 29.0625 42.7638C29.4901 43.4822 30.0051 44.1448 30.5957 44.7365C31.99 46.1334 32.773 48.0265 32.773 50.0002C32.773 51.9738 31.99 53.8669 30.5957 55.2638C30.0051 55.8555 29.4901 56.5181 29.0625 57.2365C27.7019 56.5792 26.5541 55.5516 25.7509 54.2716C24.9477 52.9917 24.5216 51.5112 24.5215 50.0002ZM32.3926 67.6076C31.3243 66.5329 30.6076 65.1592 30.3373 63.6682C30.067 62.1772 30.2559 60.6392 30.8789 59.258C31.4331 59.3597 31.9952 59.412 32.5586 59.4142C34.6868 59.4168 36.7271 60.2634 38.232 61.7682C39.7368 63.2731 40.5834 65.3134 40.586 67.4416C40.5882 68.005 40.6405 68.5671 40.7422 69.1212C39.3609 69.7443 37.823 69.9332 36.332 69.6629C34.841 69.3926 33.4673 68.6759 32.3926 67.6076ZM50 75.4787C48.4889 75.4786 47.0085 75.0525 45.7285 74.2493C44.4486 73.4461 43.421 72.2983 42.7637 70.9377C43.4821 70.5101 44.1447 69.9951 44.7364 69.4044C46.1333 68.0102 48.0264 67.2271 50 67.2271C51.9737 67.2271 53.8668 68.0102 55.2637 69.4044C55.8554 69.9951 56.518 70.5101 57.2364 70.9377C56.579 72.2983 55.5515 73.4461 54.2715 74.2493C52.9916 75.0525 51.5111 75.4786 50 75.4787ZM67.6074 67.6076C66.5328 68.6759 65.159 69.3926 63.668 69.6629C62.1771 69.9332 60.6391 69.7443 59.2578 69.1212C59.3596 68.5671 59.4119 68.005 59.4141 67.4416C59.4167 65.3134 60.2632 63.2731 61.7681 61.7682C63.273 60.2634 65.3132 59.4168 67.4414 59.4142C68.0049 59.412 68.567 59.3597 69.1211 59.258C69.7442 60.6392 69.9331 62.1772 69.6628 63.6682C69.3925 65.1592 68.6757 66.5329 67.6074 67.6076ZM70.9375 57.2365C70.5099 56.5181 69.9949 55.8555 69.4043 55.2638C68.0101 53.8669 67.227 51.9738 67.227 50.0002C67.227 48.0265 68.0101 46.1334 69.4043 44.7365C69.9949 44.1448 70.5099 43.4822 70.9375 42.7638C72.298 43.4213 73.4455 44.449 74.2485 45.7289C75.0515 47.0088 75.4774 48.4892 75.4774 50.0002C75.4774 51.5111 75.0515 52.9915 74.2485 54.2714C73.4455 55.5514 72.298 56.579 70.9375 57.2365Z" fill="#FFE0CB"/>
</g>
<defs>
<radialGradient id="paint0_radial_213_210" cx="0" cy="0" r="1" gradientUnits="userSpaceOnUse" gradientTransform="translate(34.375 34.375) scale(50)">
<stop stop-color="#3A2A1D"/>
<stop offset="1" stop-color="#241405"/>
</radialGradient>
<clipPath id="clip0_213_210">
<rect width="100" height="100" fill="white"/>
</clipPath>
</defs>
</svg>
