<svg width="100" height="100" viewBox="0 0 100 100" fill="none" xmlns="http://www.w3.org/2000/svg">
<path d="M88.8208 78.1458L95.8333 16.6083L50 0L4.16663 16.6083L11.1833 78.1458L50 100L88.8208 78.1458ZM32.05 76.2958H21.3083L50 11.0458L78.7166 76.2958H67.9958L62.2166 61.6958H37.8291L32.05 76.2958Z" fill="#F44336"/>
<path d="M41.5958 52.7002H58.4042L50 32.2544L41.5958 52.7002Z" fill="#F44336"/>
<path d="M50 11.0459L21.3083 76.2959H32.05L37.8292 61.6959H50V52.7001H41.5958L50 32.2542V11.0459Z" fill="#DEDEDE"/>
<path d="M50 0L4.16663 16.6083L11.1833 78.1458L50 100V61.6958H37.8291L32.05 76.2958H21.3083L50 11.0458V0Z" fill="#D43A2F"/>
<path d="M50 32.2544L41.5958 52.7002H50V32.2544Z" fill="#D43A2F"/>
</svg>
