<svg width="100" height="100" viewBox="0 0 100 100" fill="none" xmlns="http://www.w3.org/2000/svg">
<path d="M88.5417 25.2498L72.3042 25.2456V57.5248C72.3042 71.7498 71.5667 77.1664 69.25 81.8373C67.0375 86.4039 63.5583 89.3831 56.3833 92.7789L71.4583 99.9998C78.6292 96.3914 82.1125 93.0998 84.7417 87.8956C87.5917 82.4831 88.5375 76.2164 88.5375 63.1581L88.5417 25.2498Z" fill="#0D2E1E"/>
<path d="M62.7042 75.6875V0H46.4708V24.9333C44.0458 24.2958 42.0375 24.0833 39.4042 24.0833C22.4208 24.0833 11.4583 34.9125 11.4583 51.5833C11.4583 68.8917 21.7875 77.9167 41.6167 77.9167C48.2583 77.9208 54.375 77.2833 62.7042 75.6875ZM28.0167 51.2667C28.0167 42.3458 32.7583 37.25 40.9875 37.25H40.9667L41.3083 37.2458C43.1542 37.2458 44.925 37.5583 46.4667 38.1V64.325C44.1458 64.6458 42.6708 64.75 40.8792 64.75C32.5458 64.7458 28.0167 59.975 28.0167 51.2667Z" fill="#0D2E1E"/>
<path d="M88.5417 50H72.3042V57.5292C72.3042 71.7542 71.5667 77.1708 69.25 81.8417C67.0375 86.4083 63.5583 89.3875 56.3833 92.7833L71.4583 100C78.6292 96.3917 82.1125 93.1 84.7417 87.8958C87.5917 82.4833 88.5375 76.2167 88.5375 63.1583L88.5417 50ZM62.7042 50H46.4708V64.325C44.15 64.6458 42.675 64.75 40.8833 64.75C32.55 64.75 28.0167 59.975 28.0167 51.2708C28.0167 50.8375 28.0292 50.4167 28.05 50.0042H11.4917C11.4708 50.525 11.4583 51.0542 11.4583 51.5875C11.4583 68.8958 21.7875 77.9208 41.6167 77.9208C48.2583 77.9208 54.375 77.2833 62.7042 75.6917V50Z" fill="#0B281A"/>
<path d="M88.5417 0.0874023H72.3042V16.8666H88.5417V0.0874023Z" fill="#0D2E1E"/>
<path d="M80.425 0.0874023H72.3042V16.8666H80.425V0.0874023Z" fill="#0B281A"/>
</svg>
