<svg width="100" height="100" viewBox="0 0 100 100" fill="none" xmlns="http://www.w3.org/2000/svg">
<path d="M98.9609 76.906C95.3984 77.8123 93.1953 76.9451 91.2188 73.9763C86.7813 67.3279 81.8828 60.9841 77.1563 54.5232C76.5469 53.6873 75.9141 52.867 75.125 51.8279C69.5313 59.3748 63.9453 66.5623 58.7031 74.0388C56.8281 76.7107 54.8594 77.8748 51.3594 76.9295L72.3906 48.7029L52.8125 23.2107C56.1797 22.5545 58.5078 22.8904 60.5703 25.906C65.125 32.5623 70.1484 38.8982 75.1562 45.6013C80.1953 38.9216 85.1563 32.5779 89.8438 25.9841C91.7266 23.3123 93.75 22.2966 97.1328 23.281C94.5703 26.6795 92.0625 30.0232 89.5391 33.3435C86.1328 37.8201 82.7891 42.3513 79.2578 46.7341C78 48.2966 78.2031 49.3123 79.3281 50.7888C85.8594 59.3748 92.3125 68.0466 98.9609 76.906ZM1.03906 48.2341C1.60156 45.4138 1.97656 42.5388 2.75781 39.7732C7.44531 23.031 26.6641 16.0701 39.8672 26.4451C47.6016 32.531 49.5234 41.1091 49.1406 50.781H5.54688C4.89063 68.1326 17.3828 78.6091 33.3047 73.2654C38.8906 71.3904 42.1797 67.0154 43.8281 61.5466C44.6641 58.8045 46.0469 58.3748 48.625 59.156C47.3047 65.9998 44.3125 71.7185 38.0625 75.2966C28.6875 80.656 15.3047 78.9216 8.26563 71.4763C4.10938 67.1013 2.34375 61.656 1.5625 55.7732C1.44531 54.8357 1.20313 53.9138 1.01562 52.9841C1.03125 51.4008 1.03906 49.8175 1.03906 48.2341ZM5.625 47.0701H45.0234C44.7656 34.5232 36.9531 25.6091 26.2734 25.531C14.5547 25.4373 6.13281 34.1404 5.625 47.0701Z" fill="black"/>
</svg>
