<svg width="67" height="100" viewBox="0 0 67 100" fill="none" xmlns="http://www.w3.org/2000/svg">
<g clip-path="url(#clip0_213_227)">
<path d="M33.5 50.0002C33.5 40.7956 40.9977 33.3335 50.2467 33.3335C59.4954 33.3335 66.9933 40.7956 66.9933 50.0002C66.9933 59.205 59.4954 66.6668 50.2467 66.6668C40.9977 66.6668 33.5 59.205 33.5 50.0002Z" fill="#1ABCFE"/>
<path d="M0.00669861 83.3332C0.00669861 74.1286 7.50435 66.6665 16.7533 66.6665H33.5V83.3332C33.5 92.538 26.0023 99.9998 16.7533 99.9998C7.50435 99.9998 0.00669861 92.538 0.00669861 83.3332Z" fill="#0ACF83"/>
<path d="M33.5 0V33.3331H50.2467C59.4956 33.3331 66.9933 25.8713 66.9933 16.6664C66.9933 7.46161 59.4956 0 50.2467 0H33.5Z" fill="#FF7262"/>
<path d="M0.00669861 16.6667C0.00669861 25.8715 7.50435 33.3333 16.7533 33.3333H33.5V0H16.7533C7.50435 0 0.00669861 7.46208 0.00669861 16.6667Z" fill="#F24E1E"/>
<path d="M0.00669861 50.0002C0.00669861 59.205 7.50435 66.6668 16.7533 66.6668H33.5V33.3335H16.7533C7.50435 33.3335 0.00669861 40.7956 0.00669861 50.0002Z" fill="#A259FF"/>
</g>
<defs>
<clipPath id="clip0_213_227">
<rect width="67" height="100" fill="white"/>
</clipPath>
</defs>
</svg>
