<svg width="100" height="100" viewBox="0 0 100 100" fill="none" xmlns="http://www.w3.org/2000/svg">
<g clip-path="url(#clip0_213_198)">
<path d="M100 51.2614C100 22.9505 77.6143 0 50 0C22.3857 0 0 22.9505 0 51.2614C0 74.0398 14.5036 93.325 34.55 100C37.2893 99.1395 37.4179 97.4296 37.4179 97.4296C37.4179 97.4296 37.4179 92.3657 37.4179 87.6863C34.4071 88.2538 30.6679 88.2611 29.3071 88.2611C27.65 88.2611 22.1321 86.8478 19.7036 80.4548C17.275 74.0617 12.75 73.4393 12.75 72.3079C12.75 71.1764 13.7429 70.9494 13.7429 70.9494C13.7429 70.9494 14.35 70.9494 17.0536 70.9494C19.7571 70.9494 22.4607 75.5886 24.3393 78.4189C26.2179 81.2493 30.7393 81.8132 32.95 81.8132C34.1893 81.8132 36.1107 81.1724 37.5714 80.6085C38.1679 76.6468 40.4 73.6663 40.4 73.6663C18.1036 71.6305 17.5536 54.5421 17.5536 47.8672C17.5536 41.1922 22.8536 34.6271 22.8536 34.6271C22.8536 34.6271 20.2857 27.1576 23.5143 21.0465C30.4679 21.1014 37.4214 26.4765 37.4214 26.4765C37.4214 26.4765 43.7071 24.4444 50 24.4444C56.2929 24.4444 62.5821 26.4802 62.5821 26.4802C62.5821 26.4802 69.5357 21.105 76.4893 21.0501C79.7179 27.1612 77.15 34.6307 77.15 34.6307C77.15 34.6307 82.45 41.1922 82.45 47.8708C82.45 54.5458 81.8964 71.6341 59.6036 73.67C59.6036 73.67 62.5821 77.6317 62.5821 82.4979C62.5821 87.3641 62.5821 97.4369 62.5821 97.4369C62.5821 97.4369 62.7071 99.1432 65.45 100.007C85.4964 93.325 100 74.0398 100 51.2614Z" fill="black"/>
</g>
<defs>
<clipPath id="clip0_213_198">
<rect width="100" height="100" fill="white"/>
</clipPath>
</defs>
</svg>
