<svg width="100" height="100" viewBox="0 0 100 100" fill="none" xmlns="http://www.w3.org/2000/svg">
<g clip-path="url(#clip0_213_202)">
<path d="M91.7601 47.5013C89.5322 43.6986 86.3534 40.5409 82.536 38.3383C79.6216 36.6445 76.6079 35.5688 73.2051 35.1034V22.9191C74.8553 22.2353 76.2624 21.0721 77.2444 19.58C78.2265 18.0879 78.7383 16.3356 78.7137 14.5495C78.7197 13.3433 78.4873 12.1479 78.0299 11.0318C77.5725 9.91572 76.8991 8.90102 76.0483 8.04601C75.1976 7.191 74.1862 6.51252 73.0725 6.04955C71.9587 5.58659 70.7644 5.34827 69.5582 5.34829C67.1151 5.34827 64.7716 6.31671 63.0412 8.04139C61.3108 9.76608 60.3346 12.1064 60.3265 14.5495C60.3265 18.2879 62.3102 21.4771 65.7206 22.9191V35.0347C62.8956 35.4435 60.1547 36.3039 57.6028 37.583L24.9866 12.8862C25.2155 12.0241 25.4139 11.1315 25.4139 10.193C25.4139 4.56245 20.8514 0 15.2209 0C9.59028 0 5.03546 4.56245 5.03546 10.193C5.03546 15.8236 9.59791 20.3861 15.2285 20.3861C17.1511 20.3861 18.9288 19.8215 20.4623 18.8983L22.5986 20.5158L51.8578 41.6114C50.309 43.0304 48.867 44.6479 47.715 46.4637C45.3803 50.164 43.9536 54.2306 43.9536 58.6709V59.5865C43.9639 62.5978 44.5063 65.5836 45.5558 68.4062C46.4408 70.8171 47.7378 73.0144 49.3477 74.9981L39.6277 84.741C36.7513 83.6728 33.5241 84.3824 31.3496 86.5568C29.8695 88.0293 29.0379 90.0359 29.0455 92.1263C29.0532 94.2168 29.8695 96.2081 31.3573 97.6959C32.845 99.1836 34.8363 100.008 36.9268 100.008C39.0173 100.008 41.0239 99.1836 42.4964 97.6959C43.9689 96.2081 44.8081 94.2168 44.8005 92.1263C44.7999 91.3239 44.6764 90.5263 44.4343 89.7612L54.4747 79.7208C55.848 80.6744 57.3358 81.4755 58.938 82.1622C62.231 83.6065 65.7869 84.3546 69.3828 84.3595H70.0694C74.2809 84.3595 78.2559 83.3677 81.9867 81.3458C85.8216 79.2895 89.0437 76.2543 91.3252 72.549C93.6675 68.8106 94.9492 64.6677 94.9492 60.1129V59.884C94.9492 55.4055 93.9116 51.2779 91.7449 47.4937L91.7601 47.5013ZM79.4995 68.574C76.7758 71.603 73.64 73.4722 70.0999 73.4722H69.4285C67.4067 73.4722 65.423 72.9152 63.4928 71.8929C61.3763 70.7923 59.5829 69.1594 58.2895 67.155C56.8856 65.1713 56.1227 63.0045 56.1227 60.708V60.0214C56.1227 57.763 56.5576 55.6191 57.6486 53.5973C58.8159 51.3085 60.3952 49.6681 62.4933 48.3024C64.5914 46.9368 66.7506 46.2806 69.2073 46.2806H69.4362C71.6487 46.2806 73.7621 46.7155 75.7458 47.7302C77.7553 48.7871 79.4622 50.339 80.705 52.2393C81.9353 54.1449 82.6962 56.3151 82.9251 58.5718L82.9786 59.9985C82.9786 63.1037 81.7884 65.98 79.4156 68.5893L79.4995 68.574Z" fill="#F8761F"/>
</g>
<defs>
<clipPath id="clip0_213_202">
<rect width="100" height="100" fill="white"/>
</clipPath>
</defs>
</svg>
