<svg width="100" height="100" viewBox="0 0 100 100" fill="none" xmlns="http://www.w3.org/2000/svg">
<path d="M5.85834 68.1086C5.95417 68.3252 6.06251 68.5252 6.17917 68.7252C6.23334 68.8419 6.30834 68.9627 6.37501 69.0711C6.48334 69.2877 6.60001 69.4961 6.71251 69.7044L7.36667 70.8044C7.48751 71.0086 7.60417 71.2086 7.74167 71.4086C7.97084 71.8002 8.24167 72.1836 8.47917 72.5752C8.58751 72.7377 8.68751 72.9002 8.80834 73.0627C9.26667 73.7752 9.68334 74.3669 10.1292 74.9419C10.4458 75.3711 10.7625 75.7919 11.1042 76.2127C11.2167 76.3711 11.3417 76.5294 11.4583 76.6877L12.3792 77.8044C12.4917 77.9336 12.6042 78.0836 12.725 78.2169C13.1333 78.7086 13.5667 79.1836 14 79.6669C14 79.6752 14.0125 79.6836 14.0208 79.6961C14.5583 80.3711 15.1375 80.9711 15.7708 81.5044L15.7875 81.5211C16.1208 81.8627 16.4542 82.2002 16.8083 82.5336L17.2292 82.9377C17.6917 83.3711 18.1542 83.8002 18.6417 84.2169C18.65 84.2169 18.6542 84.2252 18.6625 84.2294L18.9 84.4377C19.325 84.8086 19.7542 85.1752 20.1917 85.5169L20.7125 85.9544C21.0667 86.2377 21.4333 86.5044 21.7958 86.7836L22.3625 87.2169C22.75 87.5086 23.1625 87.7919 23.5583 88.0752C23.7042 88.1794 23.85 88.2836 24 88.3794L24.1208 88.4752L25.2917 89.2419L25.7917 89.5752C26.4042 89.9669 27.0125 90.3336 27.6208 90.7002C27.7958 90.7877 27.9708 90.8836 28.1333 90.9836C28.5833 91.2419 29.05 91.5044 29.5042 91.7419C29.7542 91.8836 30.0125 92.0044 30.2708 92.1336C30.5833 92.3086 30.9083 92.4794 31.2417 92.6544C31.3333 92.6836 31.4083 92.7127 31.4833 92.7544L31.5 92.7377C31.6375 92.8002 31.7667 92.8669 31.9 92.9336C32.4 93.1836 32.9208 93.4211 33.4625 93.6544C33.5625 93.6961 33.6708 93.7377 33.7792 93.7961C34.3792 94.0586 34.9792 94.3086 35.6 94.5502C35.7417 94.5919 35.8917 94.6627 36.0375 94.7169C36.6 94.9294 37.1792 95.1461 37.7542 95.3502L37.9625 95.4252C38.6 95.6419 39.2292 95.8502 39.8792 96.0461C40.0292 96.0877 40.1833 96.1419 40.3417 96.1836C41.0042 96.3836 41.6458 96.6211 42.3167 96.7461C85.1208 104.509 97.5583 71.1377 97.5583 71.1377C87.1083 84.6794 68.5625 88.2502 51 84.2752C50.35 84.1252 49.7 83.9169 49.0417 83.7252C48.1125 83.4622 47.1912 83.1719 46.2792 82.8544L46.675 82.9752L46.4167 82.8752C45.85 82.6836 45.3042 82.4711 44.75 82.2586C44.6144 82.201 44.4768 82.1482 44.3375 82.1002L44.2917 82.0877C43.6792 81.8419 43.0833 81.5919 42.4917 81.3294C42.3625 81.2877 42.2542 81.2294 42.125 81.1794C41.4242 80.874 40.7296 80.5545 40.0417 80.2211L40.6167 80.4752C40.4666 80.4089 40.3193 80.3366 40.175 80.2586C39.7833 80.0752 39.3917 79.8669 39.0083 79.6711C38.7164 79.5327 38.4287 79.3854 38.1458 79.2294L38.2292 79.2711C37.7583 79.0211 37.2875 78.7502 36.8125 78.4961C36.6708 78.3961 36.5083 78.3127 36.3458 78.2211C35.6398 77.8107 34.9424 77.3856 34.2542 76.9461L34.5167 77.1044C34.3403 76.9955 34.168 76.8801 34 76.7586L34.025 76.7752C33.5772 76.5002 33.1381 76.2111 32.7083 75.9086C32.5667 75.8169 32.4375 75.7169 32.2917 75.6169C31.8428 75.3105 31.401 74.9937 30.9667 74.6669L31.0667 74.7377C30.8917 74.5961 30.7042 74.4627 30.5167 74.3252C30.15 74.0377 29.7792 73.7627 29.4125 73.4627L28.9208 73.0711C28.3968 72.6542 27.8828 72.2249 27.3792 71.7836L27.375 71.7794L25.9292 70.4669L25.5125 70.0752C25.1708 69.7294 24.8208 69.4002 24.4708 69.0586L24.0667 68.6419C23.6353 68.2147 23.2143 67.777 22.8042 67.3294L22.7792 67.3002L22.7083 67.2419C22.2672 66.7574 21.8324 66.2671 21.4042 65.7711C21.2917 65.6419 21.1875 65.5044 21.0708 65.3669L20.125 64.2211C19.6986 63.6855 19.2819 63.1424 18.875 62.5919L18.7083 62.3586C8.96667 49.1252 5.44167 30.8627 13.2375 15.8794L6.35417 24.5836C-2.49999 37.2461 -1.40416 53.7127 5.36667 67.1586C5.52084 67.4877 5.69167 67.7961 5.85834 68.1086Z" fill="#1266A9"/>
<path d="M35.6792 49.8667L35.6333 49.8L35.5958 49.75L35.6792 49.8667Z" fill="black"/>
<path d="M40.3375 55.3334L40.7125 55.7084C41.1875 56.1667 41.675 56.6125 42.1708 57.0584L42.2333 57.1125C42.7333 57.5542 43.2958 58.0167 43.875 58.4667L43.9625 58.5334C44.1042 58.6292 44.225 58.7417 44.3625 58.8375C44.9458 59.2875 45.5333 59.7167 46.1458 60.1459L46.2083 60.1834C46.4667 60.3709 46.7417 60.5417 47.0333 60.725C47.15 60.8 47.2833 60.9 47.4083 60.975C47.85 61.2584 48.2833 61.5209 48.7292 61.7917C48.8 61.8209 48.8625 61.8584 48.9292 61.8875C49.3042 62.1167 49.7125 62.3375 50.1042 62.5375C50.2417 62.6209 50.375 62.6834 50.5167 62.7625C50.7958 62.9 51.0708 63.0459 51.3375 63.1875L51.4708 63.2459C52.0333 63.5209 52.6083 63.7792 53.1708 64.0334C53.3125 64.0875 53.4333 64.1334 53.5542 64.1917C54.0167 64.3917 54.4875 64.5834 54.95 64.7584C55.1583 64.8292 55.3542 64.9125 55.55 64.975C55.975 65.1334 56.4208 65.2792 56.8417 65.425L57.425 65.6125C58.0333 65.8 58.65 66.0459 59.2958 66.1459C92.35 71.5875 100 46.2667 100 46.2667C93.1125 56.1292 79.7833 60.8292 65.5792 57.1584C64.8701 56.9795 64.167 56.7781 63.4708 56.5542L63.7083 56.6209C63.5083 56.5667 63.3333 56.5042 63.1417 56.4459C62.7083 56.2959 62.2625 56.15 61.8417 55.9959L61.2417 55.7709C60.775 55.5834 60.3 55.4084 59.8458 55.2084C59.7042 55.1459 59.575 55.1042 59.4667 55.0417C58.8833 54.7792 58.2958 54.5209 57.725 54.2459L56.8667 53.8L56.3708 53.55C55.9875 53.35 55.6333 53.1417 55.2667 52.9292C55.1731 52.8853 55.0827 52.8352 54.9958 52.7792L55.0083 52.7834C54.5667 52.5084 54.1083 52.2417 53.6833 51.9625C53.5417 51.8834 53.4125 51.7875 53.2792 51.7042L52.4125 51.1417C51.8125 50.725 51.225 50.2792 50.6292 49.8459C50.4958 49.725 50.3667 49.625 50.2375 49.5167C43.9917 44.6292 39.0667 37.95 36.7292 30.3875C34.2667 22.525 34.8083 13.7084 39.0625 6.5542L33.8333 13.9209C27.4125 23.0917 27.775 35.35 32.775 45.05C33.6875 46.8417 34.6125 48.3542 35.6333 49.7959C36.5833 51.1542 37.6333 52.7459 38.9 53.8375C39.35 54.35 39.8333 54.8375 40.3375 55.3334Z" fill="#1266A9"/>
<path d="M10.15 74.9667L10.1334 74.9417L10.1042 74.9042L10.15 74.9667ZM27.475 71.8667L27.5167 71.8959L27.525 71.9084L27.475 71.8667Z" fill="black"/>
<path d="M56.9417 5.946C53.1542 11.4752 52.7917 18.3418 55.4 24.4377C58.1708 30.9127 63.8333 35.996 70.4333 38.4043C70.7042 38.5085 70.9667 38.596 71.2458 38.696L71.6125 38.8085C71.9958 38.9293 72.3833 39.071 72.7792 39.1585C91.0333 42.6627 95.975 29.8335 97.3042 27.946C92.9583 34.1543 85.6708 35.646 76.7292 33.4835C75.9517 33.2939 75.1864 33.0574 74.4375 32.7752L74.575 32.821C73.6432 32.4985 72.7305 32.1229 71.8417 31.696L72 31.7668C70.2917 30.9335 68.825 30.0335 67.4625 29.0002C59.4708 22.9585 54.5292 11.4543 59.7458 2.0835L56.9417 5.946Z" fill="#1266A9"/>
</svg>
