<svg width="100" height="100" viewBox="0 0 100 100" fill="none" xmlns="http://www.w3.org/2000/svg">
<g clip-path="url(#clip0_211_164)">
<path d="M49.9167 74.4375C72.0417 104.596 93.6917 66.0208 93.6583 42.8208C93.6208 15.3917 65.8208 0.0625 49.8958 0.0625C24.3375 0.0625 0 21.1833 0 50.0833C0 82.2083 27.9 100 49.8958 100C44.9167 99.2833 28.3292 95.7292 28.1083 57.5208C27.9583 31.6792 36.5375 21.3542 49.8625 25.8958C50.1625 26.0083 64.5583 31.6875 64.5583 50.2417C64.5583 68.7167 49.9167 74.4375 49.9167 74.4375Z" fill="url(#paint0_linear_211_164)"/>
<path d="M49.8875 25.8747C35.2667 20.8372 17.3625 32.8831 17.3625 57.0164C17.3625 96.4247 46.5625 99.9998 50.1042 99.9998C75.6625 99.9998 100 78.8789 100 49.9789C100 17.8581 72.1 0.0622422 50.1042 0.0622422C56.1958 -0.783591 82.9417 6.65391 82.9417 43.2081C82.9417 67.0456 62.9708 80.0248 49.9833 74.4789C49.6833 74.3664 35.2875 68.6872 35.2875 50.1331C35.2833 31.6622 49.8875 25.8747 49.8875 25.8747Z" fill="url(#paint1_linear_211_164)"/>
</g>
<defs>
<linearGradient id="paint0_linear_211_164" x1="12.0082" y1="19.9995" x2="84.0125" y2="77.8396" gradientUnits="userSpaceOnUse">
<stop/>
<stop offset="1" stop-color="white"/>
</linearGradient>
<linearGradient id="paint1_linear_211_164" x1="90.3651" y1="86.5827" x2="2.37568" y2="30.0286" gradientUnits="userSpaceOnUse">
<stop/>
<stop offset="1" stop-color="white"/>
</linearGradient>
<clipPath id="clip0_211_164">
<rect width="100" height="100" fill="white"/>
</clipPath>
</defs>
</svg>
