<svg width="46" height="100" viewBox="0 0 46 100" fill="none" xmlns="http://www.w3.org/2000/svg">
<path d="M22.2692 0.272949L24.9526 5.28508C25.5559 6.21001 26.2095 7.0287 26.9794 7.79114C29.2364 10.0076 31.3402 12.3732 33.2764 14.8719C37.8232 20.8089 40.89 27.4022 43.0802 34.5329C44.3936 38.8888 45.1069 43.3572 45.1603 47.8756C45.3803 61.384 40.7235 72.9831 31.3345 82.6231C29.8073 84.1517 28.1574 85.5542 26.4012 86.8165C25.4711 86.8165 25.0312 86.1072 24.6478 85.4541C23.9497 84.2431 23.4851 82.9131 23.2778 81.5325C22.9479 79.8983 22.7311 78.264 22.8379 76.5766V75.8142C22.7625 75.6517 21.9424 0.657296 22.2692 0.272949V0.272949Z" fill="#599636"/>
<path d="M22.2692 0.107501C22.1592 -0.111232 22.0493 0.0543804 21.9393 0.160623C21.9927 1.25429 21.6094 2.22922 21.0092 3.1604C20.3493 4.08533 19.4758 4.79466 18.5991 5.5571C13.7286 9.75054 9.89512 14.8158 6.82516 20.481C2.74027 28.1054 0.634972 36.2767 0.0379478 44.8792C-0.235426 47.9821 1.02461 58.9313 2.00813 62.0904C4.69159 70.4773 9.51177 77.5049 15.7554 83.6045C17.2888 85.0731 18.929 86.4355 20.6258 87.7448C21.1192 87.7448 21.1726 87.3073 21.2857 86.9823C21.502 86.287 21.6669 85.5768 21.779 84.8575L22.8788 76.6893L22.2692 0.107501Z" fill="#6CAC48"/>
<path d="M24.9527 90.1345C25.0627 88.8846 25.666 87.8471 26.3227 86.8129C25.6629 86.541 25.1727 86.0004 24.7893 85.3973C24.4588 84.8263 24.1851 84.2246 23.9723 83.6006C23.2056 81.3133 23.0422 78.9135 22.8223 76.5762V75.1606C22.5489 75.3794 22.4923 77.2292 22.4923 77.5042C22.3324 79.9746 22.0028 82.4312 21.5057 84.8568C21.3423 85.8379 21.2323 86.816 20.6259 87.6878C20.6259 87.7972 20.6259 87.9065 20.6793 88.069C21.6659 90.9563 21.9362 93.8967 22.1027 96.8933V97.987C22.1027 99.2931 22.0493 99.0181 23.1396 99.4556C23.5796 99.6181 24.0697 99.6743 24.5097 99.9993C24.8396 99.9993 24.893 99.7275 24.893 99.5087L24.7296 97.712V92.6999C24.6762 91.825 24.8396 90.9563 24.9496 90.1376L24.9527 90.1345Z" fill="#C2BFBF"/>
</svg>
