<svg width="100" height="100" viewBox="0 0 100 100" fill="none" xmlns="http://www.w3.org/2000/svg">
<path d="M45.8 1.33457C48.3 -0.0810534 51.4875 -0.0873034 53.925 1.33457L91.25 22.3752C93.5844 23.6877 95.1469 26.2908 95.125 28.9814V71.1689C95.1406 73.9721 93.425 76.6314 90.9625 77.9189L53.8375 98.8627C52.5677 99.5644 51.1332 99.9133 49.683 99.8732C48.2327 99.8331 46.8197 99.4054 45.5906 98.6346L34.45 92.1971C33.6906 91.7439 32.8375 91.3846 32.3 90.6502C32.775 90.0127 33.6188 89.9314 34.3063 89.6502C35.8563 89.1564 37.275 88.4002 38.7 87.6002C39.0594 87.3502 39.5 87.4439 39.8438 87.6689L49.3438 93.1627C50.0219 93.5533 50.7094 93.0377 51.2906 92.7096L87.7438 72.1377C88.1937 71.9189 88.4438 71.4439 88.4063 70.9502V29.1689C88.4563 28.6064 88.1344 28.0939 87.625 27.8658L50.5938 7.0127C50.3804 6.86509 50.1272 6.78577 49.8677 6.78521C49.6082 6.78465 49.3547 6.86289 49.1406 7.00957L12.1625 27.9064C11.6625 28.1346 11.3188 28.6408 11.3813 29.2033V70.9846C11.3375 71.4783 11.6 71.9439 12.0531 72.1564L21.9344 77.7346C23.7906 78.7346 26.0688 79.2971 28.1125 78.5627C29.0069 78.2256 29.7768 77.6232 30.3191 76.8363C30.8615 76.0493 31.1503 75.1153 31.1469 74.1596L31.1563 32.6283C31.1125 32.0127 31.6938 31.5033 32.2906 31.5658H37.0406C37.6656 31.5502 38.1563 32.2127 38.0719 32.8314L38.0625 74.6252C38.0656 78.3377 36.5406 82.3752 33.1063 84.1971C28.875 86.3846 23.6438 85.9252 19.4625 83.8221L8.8375 77.9471C6.3375 76.6971 4.65938 73.9971 4.675 71.1971V29.0096C4.6854 27.6384 5.06235 26.295 5.76678 25.1186C6.4712 23.9421 7.47747 22.9755 8.68125 22.3189L45.8 1.33457ZM56.5625 30.5783C61.9594 30.2658 67.7375 30.3721 72.5938 33.0314C76.3531 35.0689 78.4375 39.3439 78.5062 43.5252C78.4 44.0877 77.8125 44.4002 77.275 44.3596C75.7125 44.3564 74.1438 44.3815 72.575 44.3502C71.9094 44.3752 71.525 43.7627 71.4406 43.1752C70.9906 41.1752 69.9 39.1971 68.0188 38.2314C65.1313 36.7846 61.7812 36.8564 58.6312 36.8877C56.3312 37.0127 53.8594 37.2096 51.9125 38.5596C50.4125 39.5846 49.9625 41.6846 50.4969 43.3158C50.9969 44.5127 52.3813 44.8971 53.5094 45.2533C60.0156 46.9533 66.9062 46.8158 73.2906 49.0252C75.9313 49.9377 78.5156 51.7127 79.4219 54.4783C80.6031 58.1846 80.0875 62.6158 77.4531 65.5908C75.3156 68.0408 72.2031 69.3408 69.0938 70.0971C64.9594 71.0189 60.6719 71.0408 56.475 70.6283C52.5281 70.1783 48.4219 69.1408 45.375 66.4533C42.7688 64.1908 41.5 60.6658 41.625 57.2658C41.6563 56.6908 42.2281 56.2908 42.7813 56.3377H47.4688C48.1 56.2939 48.5625 56.8377 48.5938 57.4314C48.8844 59.3064 49.6 61.3377 51.2625 62.4314C54.4688 64.5002 58.4906 64.3564 62.1594 64.4158C65.2 64.2814 68.6125 64.2408 71.0969 62.2283C72.4094 61.0814 72.7938 59.1658 72.4406 57.5158C72.0563 56.1221 70.5656 55.4752 69.3156 55.0158C62.8938 52.9846 55.925 53.7221 49.5656 51.4221C46.9844 50.5096 44.4875 48.7846 43.4969 46.1314C42.1125 42.3814 42.7469 37.7346 45.6625 34.8596C48.475 32.0002 52.6 30.8971 56.5063 30.5033L56.5625 30.5783Z" fill="#8CC84B"/>
</svg>
