<svg width="100" height="100" viewBox="0 0 100 100" fill="none" xmlns="http://www.w3.org/2000/svg">
<path d="M89.5728 19.4396C83.5282 11.6122 75.2981 5.75318 65.9235 2.60352C56.5488 -0.546146 46.4507 -0.844965 36.9062 1.74485C27.3617 4.33467 18.7996 9.69679 12.3027 17.1531C5.80588 24.6093 1.66609 33.8248 0.406949 43.634C-0.852194 53.4432 0.825867 63.4055 5.2289 72.2609C9.63194 81.1164 16.5622 88.4672 25.1431 93.3837C33.7241 98.3002 43.5703 100.562 53.4365 99.8817C63.3027 99.2019 72.7457 95.6115 80.5713 89.5646C102.415 72.6833 106.446 41.2911 89.5712 19.4396H89.5728Z" fill="#FF6C37"/>
<path d="M66.8633 31.8582L45.7808 53.1082L39.8231 46.9832C60.5728 26.2332 62.6555 28.1082 66.8649 31.8582H66.8633Z" fill="white"/>
<path d="M45.781 53.6902C45.5942 53.6856 45.4159 53.6115 45.281 53.4824L39.281 47.4824C39.1459 47.3425 39.0704 47.1557 39.0704 46.9613C39.0704 46.7668 39.1459 46.58 39.281 46.4402C59.7387 25.9824 62.5308 26.9402 67.3636 31.3152C67.4445 31.3799 67.5092 31.4626 67.5526 31.5568C67.596 31.6509 67.6169 31.7538 67.6136 31.8574C67.6448 32.0605 67.5667 32.2683 67.4058 32.3996L46.3232 53.4839C46.1753 53.6195 45.9815 53.6937 45.781 53.6917V53.6902ZM40.8638 46.9824L45.781 51.8995L65.7808 31.8996C65.0903 31.0342 64.1049 30.4537 63.0133 30.2692C61.9216 30.0847 60.8002 30.3091 59.8637 30.8996C56.2387 32.5246 50.4059 37.4824 40.8638 46.9824Z" fill="#FF6C37"/>
<path d="M51.8229 58.9826L46.0729 53.1077L67.1557 32.2734C72.8228 37.8156 64.4057 47.0655 51.8229 58.9811V58.9826Z" fill="white"/>
<path d="M51.8231 59.7334C51.6387 59.7187 51.4636 59.646 51.3231 59.5256L45.4482 53.7756C45.3601 53.5619 45.3601 53.3221 45.4482 53.1084C45.3857 52.9331 45.3857 52.7416 45.4482 52.5662L66.5308 31.4835C66.6774 31.3457 66.871 31.269 67.0722 31.269C67.2734 31.269 67.467 31.3457 67.6136 31.4835C68.2964 32.1119 68.8358 32.88 69.1952 33.7355C69.5546 34.591 69.7255 35.5138 69.6964 36.4413C69.6964 42.0663 63.2793 49.1491 52.3637 59.4834C52.2179 59.6277 52.026 59.7162 51.8216 59.7334H51.8231ZM47.156 53.1084L51.8637 57.8147C60.1965 49.9397 68.1558 41.8147 68.1964 36.3147C68.2418 35.1488 67.8563 34.0069 67.1136 33.1069L47.156 53.1084Z" fill="#FF6C37"/>
<path d="M39.9888 47.1077L44.1559 51.2749C44.1825 51.2983 44.2038 51.3272 44.2184 51.3595C44.233 51.3919 44.2406 51.4269 44.2406 51.4624C44.2406 51.4979 44.233 51.5329 44.2184 51.5653C44.2038 51.5976 44.1825 51.6264 44.1559 51.6499L35.3638 53.5249C35.1864 53.5632 35.0012 53.5424 34.8366 53.4658C34.672 53.3892 34.537 53.2608 34.4521 53.1004C34.3671 52.9399 34.337 52.7561 34.3662 52.5769C34.3954 52.3977 34.4824 52.2329 34.6139 52.1077L39.7388 47.0249C39.7388 47.0249 39.906 47.0249 39.9888 47.1077Z" fill="white"/>
<path d="M35.156 54.3591C34.8782 54.3556 34.6059 54.2809 34.3652 54.1423C34.1245 54.0036 33.9234 53.8055 33.781 53.5669C33.6208 53.2647 33.5627 52.9188 33.6153 52.5808C33.668 52.2429 33.8286 51.931 34.0732 51.6919L39.1559 46.5669C39.3392 46.4031 39.5765 46.3125 39.8223 46.3125C40.0682 46.3125 40.3054 46.4031 40.4887 46.5669L44.6559 50.7341C44.9027 50.9685 44.9996 51.3232 44.9059 51.6513C44.8121 51.9794 44.5371 52.2403 44.1981 52.3185L35.406 54.1935L35.156 54.3591ZM39.8231 48.0263L35.1154 52.7341L42.9074 51.0669L39.8231 48.0263Z" fill="#FF6C37"/>
<path d="M78.0729 20.149C75.0572 17.2397 70.3197 17.1178 67.1572 19.8631C63.9946 22.6084 63.454 27.3209 65.9165 30.7115C68.379 34.1022 73.0213 35.0522 76.615 32.899L70.9478 27.2318L78.0729 20.149Z" fill="white"/>
<path d="M72.448 34.8144C70.7154 34.7922 69.0277 34.2606 67.5951 33.2859C66.1626 32.3112 65.0485 30.9365 64.3917 29.3331C63.7354 27.7309 63.5633 25.9714 63.8965 24.2724C64.2298 22.5734 65.0538 21.0093 66.2667 19.7737C67.9349 18.1362 70.1791 17.2187 72.5167 17.2188C74.8543 17.2188 77.0986 18.1362 78.7667 19.7737C78.9261 19.9081 79.0167 20.1065 79.0167 20.3159C79.0163 20.4189 78.9938 20.5207 78.9507 20.6142C78.9076 20.7077 78.8448 20.7909 78.7667 20.8581L72.0167 27.2331L77.1417 32.2753C77.2248 32.3546 77.2871 32.453 77.3233 32.562C77.3596 32.6709 77.3686 32.7871 77.3495 32.9003C77.3372 33.0096 77.301 33.1147 77.2435 33.2084C77.186 33.3021 77.1086 33.382 77.0167 33.4425C75.6399 34.3031 74.0571 34.778 72.4339 34.8175L72.448 34.8144ZM72.448 18.6472C69.4792 18.6628 66.823 20.4487 65.7089 23.1784C64.5949 25.9081 65.2011 29.0503 67.2824 31.1472C68.3176 32.1884 69.6431 32.8927 71.0853 33.1679C72.5276 33.4431 74.0193 33.2763 75.3652 32.6894L70.448 27.7722C70.3698 27.7097 70.3067 27.6304 70.2633 27.5402C70.22 27.45 70.1975 27.3512 70.1975 27.2511C70.1975 27.151 70.22 27.0522 70.2633 26.962C70.3067 26.8718 70.3698 26.7925 70.448 26.73L76.948 20.1878C75.6559 19.1975 74.0759 18.6561 72.448 18.6456V18.6472Z" fill="#FF6C37"/>
<path d="M78.1978 20.2744L71.0729 27.3572L76.74 33.0244C77.3104 32.6969 77.8414 32.3053 78.3228 31.8572C79.8081 30.2872 80.6253 28.2016 80.602 26.0405C80.5786 23.8794 79.7166 21.8119 78.1978 20.2744Z" fill="white"/>
<path d="M76.6135 33.6484C76.5199 33.6535 76.4263 33.6375 76.3398 33.6015C76.2532 33.5655 76.1759 33.5105 76.1135 33.4406L70.4463 27.7734C70.3682 27.7109 70.3051 27.6316 70.2617 27.5414C70.2183 27.4512 70.1958 27.3524 70.1958 27.2523C70.1958 27.1522 70.2183 27.0534 70.2617 26.9632C70.3051 26.873 70.3682 26.7937 70.4463 26.7312L77.5291 19.7734C77.5975 19.6703 77.6904 19.5857 77.7994 19.5271C77.9085 19.4686 78.0303 19.438 78.1541 19.438C78.2778 19.438 78.3997 19.4686 78.5087 19.5271C78.6178 19.5857 78.7107 19.6703 78.7791 19.7734C79.6106 20.5881 80.2711 21.5605 80.7221 22.6337C81.173 23.7069 81.4053 24.8593 81.4053 26.0234C81.4053 27.1875 81.173 28.3399 80.7221 29.4131C80.2711 30.4863 79.6106 31.4587 78.7791 32.2734C78.2886 32.7937 77.7274 33.2423 77.1119 33.6062C76.9569 33.6844 76.7778 33.6995 76.6119 33.6484H76.6135ZM72.0307 27.2328L76.7385 31.9406C77.0623 31.7136 77.3689 31.4629 77.6556 31.1906C79.0396 29.8104 79.8191 27.9373 79.8228 25.9828C79.826 24.2336 79.1885 22.5439 78.0306 21.2328L72.0307 27.2328Z" fill="#FF6C37"/>
<path d="M67.7386 32.7327C67.1742 32.2027 66.4292 31.9077 65.655 31.9077C64.8808 31.9077 64.1358 32.2027 63.5714 32.7327L44.6981 51.564L47.8231 54.7312L67.7808 37.2311C68.0851 36.9394 68.3265 36.5885 68.4902 36.2C68.6538 35.8115 68.7362 35.3936 68.7322 34.972C68.7283 34.5504 68.6381 34.1342 68.4672 33.7488C68.2963 33.3634 68.0484 33.0171 67.7386 32.7311V32.7327Z" fill="white"/>
<path d="M47.656 55.4836C47.4693 55.479 47.291 55.4049 47.156 55.2758L43.9888 52.1086C43.8538 51.9688 43.7783 51.782 43.7783 51.5875C43.7783 51.3931 43.8538 51.2063 43.9888 51.0664L62.8637 32.2743C63.4073 31.7313 64.1016 31.3641 64.8564 31.2205C65.6112 31.0768 66.3918 31.1632 67.0969 31.4685C67.8021 31.7739 68.3992 32.284 68.8109 32.9328C69.2226 33.5816 69.4298 34.3391 69.4058 35.1071C69.3842 35.6284 69.2587 36.1401 69.0369 36.6123C68.815 37.0845 68.5011 37.5077 68.1136 37.8571L48.156 55.3571C48.0108 55.4598 47.8324 55.5044 47.656 55.4821V55.4836ZM45.4482 51.5649L47.531 53.6899L67.1136 36.6477C67.598 36.2258 67.8871 35.6227 67.9058 34.9805C67.9246 34.3383 67.6715 33.7102 67.198 33.2727C66.7608 32.8373 66.1689 32.5929 65.5519 32.5929C64.9349 32.5929 64.3431 32.8373 63.9059 33.2727L45.4482 51.5649Z" fill="#FF6C37"/>
<path d="M30.0733 73.0234C30.02 73.0958 29.9913 73.1834 29.9913 73.2734C29.9913 73.3633 30.02 73.4509 30.0733 73.5234L30.9061 77.1484C30.9395 77.3617 30.9079 77.5801 30.8153 77.7752C30.7228 77.9703 30.5737 78.133 30.3874 78.2421C30.2017 78.3507 29.9864 78.3976 29.7725 78.3759C29.5585 78.3543 29.3569 78.2653 29.1968 78.1218L23.489 72.6218L41.281 54.689H47.4481L51.6153 58.8562C45.1149 64.5396 37.8669 69.3063 30.0733 73.0234Z" fill="white"/>
<path d="M29.6983 79.1486C29.2265 79.1393 28.7608 78.9455 28.4483 78.6064L22.9906 73.1486C22.9124 73.0861 22.8493 73.0068 22.8059 72.9166C22.7626 72.8264 22.7401 72.7276 22.7401 72.6275C22.7401 72.5275 22.7626 72.4287 22.8059 72.3385C22.8493 72.2482 22.9124 72.169 22.9906 72.1065L40.906 54.1487C41.0064 54.042 41.1375 53.9694 41.281 53.9408H47.4888C47.6506 53.8837 47.827 53.8837 47.9888 53.9408L52.156 58.108C52.2352 58.1811 52.2955 58.2723 52.3317 58.3738C52.3679 58.4753 52.3789 58.5841 52.3638 58.6908C52.3667 58.7944 52.3457 58.8972 52.3023 58.9912C52.2589 59.0853 52.1944 59.168 52.1138 59.233L51.781 59.5252C45.2543 64.9663 38.0738 69.5712 30.4061 73.233L31.1983 76.608C31.2596 76.8684 31.2619 77.1391 31.2052 77.4005C31.1485 77.6619 31.0341 77.9073 30.8705 78.1188C30.7068 78.3304 30.498 78.5027 30.2593 78.6233C30.0206 78.7439 29.7579 78.8097 29.4905 78.8158L29.6983 79.1486ZM24.6156 72.6065L29.5311 77.5643C29.577 77.6051 29.6362 77.6277 29.6976 77.6277C29.7589 77.6277 29.8182 77.6051 29.864 77.5643C29.8946 77.5217 29.9111 77.4706 29.9111 77.4182C29.9111 77.3657 29.8946 77.3146 29.864 77.2721L29.0312 73.6471C28.9655 73.3869 28.9919 73.1121 29.1058 72.8691C29.2197 72.6262 29.4142 72.4302 29.6561 72.3143C37.1177 68.7014 44.1131 64.196 50.4888 58.8971L47.0716 55.4799H41.4889L24.6156 72.6065Z" fill="#FF6C37"/>
<path d="M19.1983 76.8986L23.3655 72.7314L29.7826 79.1486L19.5749 78.4408C19.3996 78.427 19.2332 78.3583 19.0993 78.2444C18.9654 78.1304 18.871 77.9771 18.8294 77.8063C18.7878 77.6355 18.8013 77.4559 18.8678 77.2932C18.9343 77.1305 19.0506 76.9929 19.1999 76.9002L19.1983 76.8986Z" fill="white"/>
<path d="M29.906 79.7733L19.739 79.0655C19.1359 79.0093 18.6171 78.5968 18.4046 78.0452C18.1921 77.4936 18.3218 76.8389 18.739 76.3983L22.9061 72.2311C23.046 72.096 23.2328 72.0205 23.4272 72.0205C23.6216 72.0205 23.8085 72.096 23.9483 72.2311L30.3232 78.6061C30.4115 78.727 30.459 78.8728 30.459 79.0225C30.459 79.1722 30.4115 79.318 30.3232 79.4389C30.2268 79.5948 30.0794 79.7124 29.906 79.7718V79.7733ZM19.739 77.4405L28.0717 77.9827L23.4889 73.6905L19.739 77.4405Z" fill="#FF6C37"/>
<path d="M48.0308 55.1925L39.6138 56.4846L44.4887 51.6519L48.0308 55.1925Z" fill="white"/>
<path d="M39.6137 57.2741C39.4738 57.2778 39.3359 57.2402 39.2173 57.166C39.0986 57.0918 39.0045 56.9843 38.9465 56.8569C38.8578 56.7362 38.8099 56.5903 38.8099 56.4405C38.8099 56.2907 38.8578 56.1448 38.9465 56.0241L43.7792 51.149C43.9258 51.0113 44.1194 50.9346 44.3206 50.9346C44.5218 50.9346 44.7154 51.0113 44.862 51.149L48.4057 54.6897C48.4765 54.802 48.514 54.932 48.514 55.0647C48.514 55.1974 48.4765 55.3274 48.4057 55.4397C48.3709 55.5765 48.2975 55.7005 48.1941 55.7966C48.0907 55.8928 47.9619 55.9571 47.8229 55.9819L39.4902 57.2741H39.6137ZM44.4886 52.7319L41.7808 55.4397L46.4479 54.7319L44.4886 52.7319Z" fill="#FF6C37"/>
<path d="M48.0307 55.1892L42.1559 55.9392C41.9986 55.9749 41.8341 55.959 41.6867 55.8938C41.5392 55.8286 41.4167 55.7177 41.3372 55.5774C41.2578 55.4371 41.2257 55.2749 41.2456 55.1149C41.2656 54.955 41.3366 54.8057 41.4481 54.6892L44.4902 51.647L48.0307 55.1892Z" fill="white"/>
<path d="M41.9888 56.7336C41.7165 56.731 41.4497 56.6563 41.2156 56.5172C40.9815 56.378 40.7884 56.1794 40.656 55.9414C40.4969 55.6562 40.4352 55.3268 40.4803 55.0034C40.5254 54.6799 40.6749 54.38 40.906 54.1492L43.9482 51.107C44.0948 50.9693 44.2884 50.8926 44.4896 50.8926C44.6907 50.8926 44.8844 50.9693 45.031 51.107L48.5731 54.6492C48.6785 54.749 48.7526 54.8772 48.7865 55.0183C48.8204 55.1594 48.8127 55.3073 48.7642 55.4441C48.7158 55.5809 48.6287 55.7007 48.5135 55.7889C48.3983 55.8772 48.26 55.9302 48.1153 55.9414L42.2826 56.6914L41.9888 56.7336ZM41.9888 55.1914L46.406 54.6492L44.4482 52.6914L41.9482 55.1914H41.9888ZM78.2385 25.0663C78.16 24.9349 78.036 24.8368 77.8899 24.7907C77.7439 24.7446 77.5861 24.7537 77.4463 24.8163C77.3773 24.8513 77.3161 24.8997 77.2662 24.9588C77.2162 25.0178 77.1787 25.0863 77.1557 25.1601C77.1093 25.3091 77.1239 25.4703 77.1963 25.6085C77.4885 26.2226 77.4072 26.9492 76.9885 27.4835C76.9365 27.535 76.8957 27.5967 76.8688 27.6648C76.8419 27.7328 76.8295 27.8057 76.8322 27.8789C76.8338 28.0254 76.8894 28.1662 76.9885 28.2742C77.0954 28.3164 77.2144 28.3164 77.3213 28.2742C77.4183 28.2986 77.5202 28.2959 77.6158 28.2664C77.7114 28.2369 77.7971 28.1818 77.8635 28.107C78.2066 27.6869 78.4239 27.1783 78.4902 26.64C78.5566 26.1017 78.4693 25.5556 78.2385 25.0648V25.0663Z" fill="#FF6C37"/>
</svg>
