<svg width="100" height="100" viewBox="0 0 100 100" fill="none" xmlns="http://www.w3.org/2000/svg">
<path d="M91.4708 62.1627C91.4754 62.1627 91.4792 62.1589 91.4792 62.1543C91.4792 62.1497 91.4754 62.146 91.4708 62.146C91.4662 62.146 91.4625 62.1497 91.4625 62.1543C91.4625 62.1589 91.4662 62.1627 91.4708 62.1627Z" fill="black"/>
<path d="M79.1292 61.3625L79.1375 61.3708L79.125 61.3791C78.5208 61.6 78.0208 61.6916 77.6 61.8791C77.177 62.0446 76.8289 62.3587 76.6208 62.7625L76.6167 62.7708C76.3583 63.25 76.1333 64.1 76.2 65.5458C76.3708 65.6708 76.5792 65.7666 76.7917 65.8333L76.8083 65.8375C77.5125 66.0541 78.6917 66.1958 80.0083 66.175C82.6333 66.1458 85.8667 65.525 87.5833 64.7166C89.0625 64.0125 90.3292 63.1625 91.4583 62.1541C85.725 63.3541 82.4875 63.0333 80.5 62.2041C80.0044 61.992 79.5426 61.7084 79.1292 61.3625ZM73.25 17.2958L73.275 17.3333L73.3042 17.3666L73.25 17.2958ZM51.3208 80.4125L51.3167 80.0958L51.3125 79.9833L51.3208 80.4125ZM46.925 62.025C46.664 61.8972 46.3839 61.8128 46.0958 61.775H46.0833V61.7666H45.9958C45.7792 61.7875 45.4625 61.8625 44.8458 62.55C43.4125 64.175 42.9125 65.1958 41.7292 66.15C40.5458 67.1 39.0125 67.6083 35.9458 68.2458C35.2908 68.3636 34.6536 68.5653 34.05 68.8458C34.1708 68.9458 34.1583 68.9708 34.3375 69.0666C34.7875 69.3166 35.3625 69.5375 35.8292 69.6583C37.1458 69.9916 39.3125 70.3791 41.5708 69.9916C43.8292 69.6 46.1792 68.5041 48.1833 65.6583C48.5292 65.1666 48.5667 64.4416 48.2833 63.6625C48 62.8833 47.3667 62.2125 46.925 62.025ZM63.75 6.2583L63.5125 6.30413L63.7583 6.26247L63.75 6.2583ZM75.3417 28.75C72.5458 28.7875 70.9792 29.5166 70.1542 30.4708C68.9875 31.825 68.8792 34.2 69.6042 37.125C70.325 40.0541 71.8125 43.3291 73.2125 46.05C73.9125 47.4125 74.5917 48.6375 75.1375 49.6333C75.6875 50.6333 76.0917 51.3416 76.3375 51.9458C76.5625 52.5041 76.8167 52.9958 77.0708 53.4541C78.1542 51.1416 78.3458 48.8708 78.2375 46.5041C78.0958 43.575 77.4208 40.5791 77.5208 37.5458C77.6333 34 78.325 31.6916 78.3833 28.95C77.375 28.8159 76.3589 28.7491 75.3417 28.75ZM75.8583 30.8583L75.8542 30.8916V30.9333C75.8542 31.125 75.8 31.3083 75.7042 31.4583L75.7083 31.4541C75.5865 31.6825 75.4337 31.8928 75.2542 32.0791C74.844 32.5401 74.2907 32.8498 73.6833 32.9583L73.6667 32.9625C73.067 33.0367 72.4614 32.8819 71.9708 32.5291L71.9792 32.5333C71.7799 32.3975 71.6016 32.2332 71.45 32.0458L71.4458 32.0416C71.3139 31.8948 71.2245 31.7147 71.1875 31.5208V31.5125L71.1833 31.45C71.1833 31.2708 71.25 31.1041 71.3625 30.9791C71.4947 30.8252 71.6561 30.6992 71.8375 30.6083L71.8458 30.6041C72.2417 30.3791 72.775 30.2125 73.3792 30.1208C73.5972 30.0889 73.8171 30.0709 74.0375 30.0666V30.0791H74.2417C74.4914 30.0839 74.7399 30.1147 74.9833 30.1708C75.1847 30.2116 75.3768 30.2893 75.55 30.4C75.6291 30.4522 75.6972 30.5196 75.7501 30.5982C75.803 30.6769 75.8398 30.7653 75.8583 30.8583ZM29.4875 47.1125C29.4875 46.3625 29.5458 45.6291 29.6542 44.9083L29.6458 44.9875C30.0708 41.9083 30.1292 39.0291 30.0792 36.7541C30.0292 34.5375 29.8708 33.0625 29.8708 32.1416V32.0416L29.8667 32.0166V31.9916C29.8667 27.0583 30.7333 22.3291 32.3042 17.9416C33.4583 14.8416 35.175 11.6958 37.7458 9.1458C35.2167 8.30413 30.7333 7.0208 25.875 6.77913C25.356 6.75168 24.8364 6.73779 24.3167 6.73747L24.3125 6.74163C23.7917 6.74163 23.2667 6.7583 22.75 6.78747C18.5917 7.02913 14.6583 8.24997 11.85 11.2666C9.03332 14.2833 7.17916 19.2291 7.58332 27.4166C7.66249 28.9666 8.32916 33.3083 9.47082 38.4666C10.6167 43.625 12.2292 49.6958 14.1708 55.0583C16.1167 60.4208 18.475 65.0875 20.7167 67.2958C21.8458 68.4 22.825 68.8458 23.7125 68.8083C24.6042 68.7666 25.6792 68.2458 26.9917 66.65C29.4104 63.6969 31.9228 60.8218 34.525 58.0291L34.4417 58.1166C32.8807 56.7403 31.6313 55.0468 30.777 53.1492C29.9227 51.2516 29.4831 49.1935 29.4875 47.1125Z" fill="#32648D"/>
<path d="M51.65 6.53324V6.5249C46.7833 6.5374 43.2958 8.0249 40.6458 10.2541C37.9167 12.5582 36.0875 15.7124 34.8833 18.9416C33.4542 22.7749 32.9667 26.4832 32.7708 28.9999L32.825 28.9666C34.2958 28.1332 36.225 27.2999 38.2917 26.8166C40.3583 26.3332 42.5833 26.1874 44.6 26.9791C46.6167 27.7707 48.2833 29.6332 48.8875 32.4582C51.7833 46.0291 47.9875 51.0749 46.5875 54.8832C46.0787 56.1706 45.646 57.4868 45.2917 58.8249L45.225 59.1041C45.4 59.0624 45.5792 59.0124 45.7542 58.9957C46.7417 58.9124 47.5167 59.2457 47.975 59.4457C49.3833 60.0374 50.35 61.2791 50.8708 62.6957C51.0083 63.0666 51.1042 63.4666 51.1625 63.8791C51.2167 64.0207 51.2458 64.1874 51.2458 64.3582V64.4082C51.0823 69.6365 51.1018 74.8688 51.3042 80.0957C51.4 82.2874 51.5375 84.2291 51.7083 85.7582C51.8875 87.3166 52.1375 88.4957 52.2958 88.8957C52.8208 90.2291 53.5917 91.9749 54.9833 93.1624C56.375 94.3457 58.3708 95.1374 62.0167 94.3457C65.1792 93.6582 67.1292 92.7041 68.4333 91.3332C69.7375 89.9624 70.5125 88.0541 71.0083 85.1332C71.7542 80.7582 73.25 68.0707 73.4333 65.6832C73.35 63.8832 73.6125 62.4999 74.1833 61.4457C74.7667 60.3624 75.675 59.6999 76.4542 59.3416C76.8458 59.1624 77.2125 59.0416 77.5125 58.9541C77.1826 58.4758 76.8366 58.0088 76.475 57.5541L76.5125 57.5999C75.4088 56.2479 74.5013 54.747 73.8167 53.1416L73.7708 53.0207C73.416 52.2818 73.0338 51.5563 72.625 50.8457L72.7125 51.0082C72.1667 50.0082 71.475 48.7582 70.75 47.3541C69.3 44.5416 67.725 41.1332 66.9042 37.8124C66.0875 34.4957 65.9708 31.0624 68.0625 28.6416C69.9125 26.4916 73.1667 25.5999 78.0458 26.0999C77.9042 25.6624 77.8167 25.2999 77.5708 24.7166C76.4616 22.0778 75.0118 19.5956 73.2583 17.3332C69.1208 11.9916 62.4333 6.70407 52.1083 6.53324H51.65ZM32.7125 32.3749L32.7208 32.3707L32.7333 32.3582L32.7125 32.3749Z" fill="#32648D"/>
<path d="M38.8375 29.554L38.8792 29.5499L38.9125 29.5374L38.8375 29.554ZM44 53.904C45.6708 49.3457 48.9583 46.0207 46.1917 33.0457C45.7375 30.9207 44.8417 30.0624 43.6083 29.579C42.9589 29.3451 42.2736 29.2267 41.5833 29.229H41.4417H41.45C40.5836 29.2374 39.721 29.345 38.8792 29.5499C37.2285 29.9601 35.6396 30.5879 34.1542 31.4165C33.6167 31.7124 33.1542 32.0207 32.7208 32.3665L32.6417 32.4415C32.6667 33.0499 32.7833 34.5249 32.8333 36.6957C32.9082 39.5978 32.7536 42.5013 32.3708 45.379C31.3875 52.504 36.4958 58.404 42.4958 58.4124C42.85 56.9499 43.425 55.4665 44 53.904ZM40.4542 33.1999C40.2611 33.0011 40.0983 32.7751 39.9708 32.529L39.9625 32.5124C39.8272 32.2902 39.77 32.0291 39.8 31.7707C39.8625 31.3207 40.2292 31.0915 40.5833 30.9624C40.993 30.8286 41.4239 30.7721 41.8542 30.7957L41.85 30.779C42.0667 30.779 42.3 30.7999 42.5333 30.8332C43.1625 30.9207 43.725 31.0915 44.15 31.3415C44.3564 31.4521 44.5402 31.6005 44.6917 31.779L44.6958 31.7832C44.8375 31.9457 44.9208 32.1582 44.9208 32.3957L44.9167 32.4957C44.8762 32.7343 44.7694 32.9525 44.6083 33.1332C44.4414 33.3386 44.2464 33.5195 44.0292 33.6707L44.0208 33.6749C43.4864 34.0645 42.8223 34.2331 42.1667 34.1457H42.1792C41.5137 34.0348 40.9055 33.7014 40.4542 33.1999Z" fill="#32648D"/>
<path d="M34.0708 31.4583L34.1542 31.4166L34.1667 31.4083L34.0708 31.4583ZM75.4792 15.6333C77.3313 18.0157 78.8677 20.6276 80.05 23.4041L80.1375 23.6333C80.5917 24.7333 80.8958 25.6624 81.0667 26.3833C81.1542 26.7458 81.2125 27.0499 81.2333 27.3666C81.2498 27.568 81.2329 27.7707 81.1833 27.9666C81.1833 27.9791 81.1625 28.0083 81.1583 28.0208C81.2833 31.6708 80.3875 34.1458 80.2833 37.6291C80.2 40.1541 80.8375 43.1208 80.9958 46.3583C81.1458 49.3999 80.7833 52.7416 78.8292 56.0208C78.9958 56.2208 79.1417 56.4208 79.3 56.6208C84.4625 48.3916 88.1833 39.2874 90.1667 31.5249C91.2292 27.3458 91.7917 23.5583 91.8417 20.5583C91.8833 17.5583 91.3292 15.3833 90.6292 14.4749C85.1042 7.32493 77.6333 5.5041 71.3667 5.4541L70.7667 5.45827C68.4111 5.49435 66.0649 5.76372 63.7625 6.26243C68.8792 8.56243 72.7542 12.1041 75.4792 15.6333Z" fill="#32648D"/>
<path d="M52.3375 1.075H52.2958C47.4458 0.991667 43.2833 2.18333 39.9208 4.16667C36.6125 3.00417 29.75 1 22.5125 1.4C17.475 1.67917 11.975 3.22917 7.89999 7.58333C3.83749 11.9375 1.69166 18.675 2.14166 27.8417C2.26666 30.3708 2.97916 34.4958 4.15833 39.8375C5.34166 45.1792 6.99999 51.4333 9.07083 57.1375C11.1417 62.8458 13.4083 67.9708 16.9542 71.4542C18.725 73.2 21.1625 74.6667 24.0333 74.5458C26.05 74.4625 27.8708 73.5667 29.4458 72.2458C30.2125 73.2667 31.0292 73.7125 31.775 74.125C32.7125 74.6458 33.625 75 34.5708 75.2333C36.2708 75.6625 39.1792 76.2375 42.5875 75.65C43.8302 75.4284 45.0398 75.0504 46.1875 74.525C46.2333 75.9 46.2875 77.2458 46.3375 78.6083C46.5083 82.925 46.6125 86.9125 47.8917 90.4083C48.0958 90.9792 48.6625 93.9208 50.8833 96.5167C53.1042 99.1167 57.4625 100.737 62.4208 99.6625C65.9208 98.9042 70.3667 97.5375 73.325 93.2792C76.2458 89.0708 77.5625 83.0333 77.825 73.2417C77.8917 72.7125 77.9708 72.2625 78.05 71.8417L78.7458 71.9042H78.8292C82.5625 72.075 86.6125 71.5375 89.9958 69.9458C92.9917 68.5417 95.2583 67.1208 96.9125 64.6C97.325 63.975 97.775 63.2208 97.9 61.9208C98.025 60.6208 97.2875 58.5875 96.0625 57.65C93.6125 55.7667 92.075 56.4833 90.425 56.8292C88.812 57.1959 87.1662 57.3997 85.5125 57.4375H85.4792C90.2375 49.325 93.65 40.7083 95.5958 33.0833C96.75 28.5833 97.3958 24.4333 97.4458 20.8042C97.5 17.175 97.2083 13.9625 95.0583 11.1833C88.3458 2.5 78.9083 0.1 71.6042 0.0166667C71.3792 0.0125 71.15 0.00833333 70.925 0.0125V0C67.0572 0.0319078 63.2128 0.605538 59.5042 1.70417L59.3333 1.7625C57.024 1.34352 54.6843 1.1136 52.3375 1.075ZM62.2083 3.72917C64.9932 3.06158 67.8447 2.71075 70.7083 2.68333H70.7333L70.7375 2.66667C77.6458 2.6 86.4667 4.5625 92.8042 12.7583C94.2292 14.6 94.6542 17.2917 94.6042 20.6083C94.55 23.9208 93.9458 27.8875 92.8375 32.2333C90.6875 40.65 86.6292 50.4625 80.9125 59.2667C81.1073 59.4084 81.3186 59.5259 81.5417 59.6167L81.5625 59.625C82.7542 60.125 85.475 60.5542 90.9042 59.425C92.2708 59.1333 93.2708 58.9375 94.3083 59.7375C94.5471 59.9417 94.7386 60.1955 94.8696 60.4811C95.0005 60.7667 95.0678 61.0774 95.0667 61.3917L95.0625 61.5167V61.5125C95.0067 62.0176 94.8216 62.4998 94.525 62.9125C93.475 64.5083 91.4042 66.0208 88.7542 67.2667C86.4042 68.375 83.0333 68.9542 80.0458 68.9875C78.5458 69.0042 77.1667 68.8875 75.9917 68.5167L75.9167 68.4875C75.4625 72.9042 74.4208 81.625 73.7417 85.6042C73.2 88.8125 72.25 91.3625 70.4333 93.2708C68.6208 95.1792 66.0583 96.3292 62.6083 97.0792C58.3375 98.0083 55.2208 97.0083 53.2125 95.2958C51.2083 93.5875 50.2917 91.3208 49.7375 89.9333C49.3583 88.975 49.1625 87.7333 48.9708 86.075C48.7792 84.4167 48.6417 82.3875 48.5458 80.1C48.4489 77.4998 48.4017 74.8979 48.4042 72.2958C48.4042 71.3917 48.4125 70.4917 48.4208 69.5875C46.6642 71.2247 44.4723 72.3199 42.1083 72.7417L42.0333 72.7542C39.1958 73.2417 36.6667 72.7625 35.1542 72.3792C34.4002 72.1886 33.6736 71.903 32.9917 71.5292C32.3 71.1542 31.6417 70.725 31.2 69.8875C30.9385 69.4005 30.8573 68.8368 30.9708 68.2958C31.1106 67.755 31.4238 67.275 31.8625 66.9292L31.8667 66.925C32.6833 66.2542 33.7583 65.8792 35.3875 65.5375C38.3458 64.9208 39.3792 64.5 40.0083 63.9958C40.5417 63.5625 41.15 62.6875 42.2167 61.4042L42.2042 61.2458V61.2333C40.262 61.1814 38.3616 60.658 36.6667 59.7083L36.7292 59.7417C36.1125 60.4 32.9583 63.775 29.1167 68.4583C27.5 70.4167 25.7125 71.5417 23.8292 71.6208C21.9458 71.7 20.2417 70.7417 18.7917 69.3208C15.8958 66.475 13.5875 61.5792 11.575 56.0458C9.56666 50.5125 7.93333 44.35 6.77083 39.1C5.60416 33.85 4.92083 29.6167 4.82083 27.575C4.38749 18.9 6.39166 13.0542 9.82916 9.36667C13.2708 5.67917 17.9875 4.28333 22.5833 4.01667C30.8375 3.5375 38.6708 6.45 40.2583 7.075C43.3167 4.975 47.2542 3.66667 52.1667 3.75C54.5725 3.78355 56.9658 4.10387 59.2958 4.70417L59.0875 4.65833L59.1708 4.62083C59.9667 4.32083 60.9833 4.01667 62.025 3.76667L62.2083 3.72917Z" fill="black"/>
</svg>
