<svg width="100" height="82" viewBox="0 0 100 82" fill="none" xmlns="http://www.w3.org/2000/svg">
<g clip-path="url(#clip0_213_234)">
<path fill-rule="evenodd" clip-rule="evenodd" d="M83.6507 5.81108L85.7585 8.59808C86.3118 9.33365 86.1735 10.388 85.4411 10.9437L83.2031 12.6519C83.61 13.7389 83.8704 14.8995 83.9762 16.0846L86.5234 16.436C87.4349 16.5586 88.0696 17.4086 87.9476 18.324L87.4756 21.7975C87.3535 22.7129 86.5072 23.3586 85.5957 23.2278L82.8125 22.8437C82.3161 23.9307 81.6813 24.9278 80.9326 25.8187L82.4951 27.8783C83.0485 28.6138 82.902 29.6681 82.1696 30.2239L79.3945 32.3407C78.6621 32.8965 77.6123 32.7494 77.0589 32.022L75.3581 29.7744C74.2676 30.1831 73.1201 30.4446 71.932 30.5508L71.582 33.109C71.4599 34.0244 70.6136 34.6619 69.7021 34.5393L66.2435 34.0652C65.332 33.9426 64.6973 33.0926 64.8193 32.1773L65.2018 29.3821C64.1276 28.8835 63.1266 28.246 62.2396 27.5023L60.1888 29.0633C59.4564 29.6191 58.4066 29.4802 57.8532 28.7446L55.7454 25.9576C55.192 25.222 55.3304 24.1677 56.0628 23.6119L58.3008 21.9038C57.8939 20.8086 57.6335 19.6562 57.5277 18.4711L54.9805 18.1197C54.069 17.9971 53.4261 17.1471 53.5563 16.2317L54.0283 12.7582C54.1585 11.8428 54.9967 11.2053 55.9082 11.3279L58.6914 11.712C59.1878 10.6332 59.8226 9.62788 60.5631 8.73702L59.0088 6.67742C58.4554 5.95002 58.5937 4.8957 59.3262 4.33993L62.1012 2.22312C62.8336 1.66735 63.8835 1.80629 64.4368 2.54187L66.1377 4.78945C67.22 4.3808 68.3756 4.11926 69.5557 4.01301L69.9056 1.45485C70.0277 0.539475 70.874 -0.106195 71.7855 0.0164008L75.2441 0.490436C76.1556 0.613032 76.7985 1.46303 76.6683 2.37841L76.2858 5.17358C77.3682 5.67214 78.361 6.30963 79.2562 7.06155L81.307 5.5005C82.0394 4.93656 83.0892 5.07551 83.6507 5.81108ZM24.1455 54.8574V41.3719H31.0628C32.3486 41.3719 33.3252 41.4782 34.0006 41.707C34.6761 41.9277 35.2295 42.3363 35.6364 42.933C36.0514 43.5378 36.263 44.2652 36.263 45.1233C36.263 45.8671 36.1003 46.5209 35.7829 47.0604C35.4655 47.608 35.026 48.0493 34.4726 48.3844C34.1227 48.5969 33.6344 48.7767 33.0159 48.9156C33.5124 49.0873 33.8704 49.2426 34.0902 49.4142C34.2448 49.5286 34.4645 49.7656 34.7493 50.1252C35.0342 50.4849 35.2295 50.7709 35.3271 50.9671L37.3454 54.8656H32.6579L30.4443 50.7546C30.1595 50.2233 29.9154 49.8719 29.6956 49.7166C29.3945 49.5123 29.0527 49.406 28.6784 49.406H28.3122V54.8656H24.1455V54.8574ZM38.7777 78.3385H31.0303L29.9154 82.0001H22.9329L31.2581 59.7776H38.7451L47.0378 82.0001H39.8763L38.7777 78.3385ZM37.3291 73.5246L34.9121 65.5314L32.487 73.5246H37.3291ZM48.6491 59.7776H60.026C62.5081 59.7776 64.3636 60.366 65.5924 61.5511C66.8213 62.7362 67.4398 64.428 67.4398 66.6102C67.4398 68.8578 66.7643 70.615 65.4215 71.8818C64.0788 73.1487 62.0198 73.778 59.2611 73.778H55.5094V82.0001H48.6491V59.7776ZM55.5094 69.2746H57.194C58.5205 69.2746 59.4564 69.0458 59.9935 68.5799C60.5306 68.1223 60.7991 67.5256 60.7991 66.8146C60.7991 66.1199 60.5631 65.5232 60.0993 65.041C59.6354 64.5588 58.7565 64.3136 57.4707 64.3136H55.5094V69.2746ZM70.2067 59.7776H77.067V82.0001H70.2067V59.7776ZM28.3122 46.8479H30.0618C30.249 46.8479 30.6152 46.7825 31.1605 46.6599C31.4372 46.6027 31.665 46.4637 31.8359 46.2349C32.015 46.006 32.0963 45.7445 32.0963 45.4503C32.0963 45.0171 31.958 44.6738 31.6813 44.445C31.4046 44.208 30.8919 44.0935 30.1351 44.0935H28.3122V46.8479ZM38.1429 41.3719H49.2513V44.2488H42.3096V46.3983H48.7467V49.1445H42.3096V51.8007H49.4547V54.8493H38.1429V41.3719ZM50.4394 50.395L54.3782 50.1498C54.4596 50.7954 54.6387 51.2776 54.8991 51.6127C55.3304 52.1522 55.9407 52.43 56.7301 52.43C57.3161 52.43 57.7799 52.2911 58.0973 52.0132C58.4147 51.7353 58.5775 51.4084 58.5775 51.0406C58.5775 50.6892 58.4228 50.3786 58.1217 50.1007C57.8206 49.8228 57.1126 49.5695 55.9977 49.3161C54.1829 48.9075 52.889 48.3599 52.1077 47.6815C51.3265 47.0031 50.9359 46.1368 50.9359 45.0825C50.9359 44.3878 51.1393 43.7339 51.5381 43.121C51.9368 42.508 52.5391 42.0176 53.3447 41.6662C54.1504 41.3147 55.249 41.1431 56.6488 41.1431C58.3659 41.1431 59.668 41.4618 60.5713 42.1075C61.4665 42.7532 62.0036 43.7666 62.1745 45.1724L58.2764 45.4094C58.1706 44.7964 57.9508 44.3469 57.6253 44.0772C57.2917 43.7993 56.8278 43.6604 56.25 43.6604C55.7698 43.6604 55.4036 43.7666 55.1595 43.971C54.9154 44.1753 54.7933 44.4286 54.7933 44.7229C54.7933 44.9354 54.8991 45.1233 55.0944 45.3032C55.2897 45.4748 55.7454 45.6464 56.4779 45.8017C58.2926 46.194 59.5947 46.5945 60.376 46.995C61.1572 47.3954 61.735 47.894 62.085 48.4906C62.443 49.0791 62.6221 49.7493 62.6221 50.4849C62.6221 51.3512 62.3861 52.144 61.9059 52.8714C61.4339 53.5988 60.7666 54.1545 59.9121 54.5305C59.0576 54.9065 57.9834 55.0944 56.6813 55.0944C54.4027 55.0944 52.8157 54.6531 51.9368 53.7704C51.0579 52.8714 50.5615 51.7517 50.4394 50.395ZM63.2243 41.3719H75.8463V44.7065H71.6146V54.8574H67.4642V44.7065H63.2243V41.3719ZM49.2594 9.36635C47.7702 9.25192 46.2646 9.26827 44.7754 9.41538C40.1937 9.85673 35.7422 11.5322 32.0638 14.4009C27.8076 17.711 24.5768 22.6639 23.3317 29.2268L22.9411 31.2782L20.9066 31.6378C18.9128 31.9893 17.1305 32.4715 15.568 33.0845C14.0544 33.6729 12.7034 34.4003 11.5234 35.2585C10.5794 35.945 9.76562 36.7133 9.07389 37.5469C6.93359 40.1215 5.94075 43.3498 5.96516 46.619C5.98958 49.9373 7.06379 53.2882 9.04947 56.0425C9.79003 57.0641 10.6445 58.004 11.6211 58.8213C12.6139 59.6468 13.7288 60.3334 14.9821 60.8483C15.6901 61.1425 16.4469 61.3877 17.2363 61.5838V67.7054C15.6087 67.4112 14.1113 66.9699 12.7116 66.3896C10.8643 65.6213 9.22851 64.6324 7.78808 63.4228C6.42089 62.2785 5.2246 60.979 4.20735 59.5651C1.49739 55.8055 0.032545 51.2123 -7.04934e-06 46.6354C-0.0325591 42.0094 1.39973 37.408 4.49218 33.6811C5.49316 32.4715 6.67317 31.36 8.02408 30.3792C9.59472 29.235 11.3932 28.2706 13.4277 27.4778C14.8275 26.9302 16.3249 26.4725 17.9036 26.1047C19.694 18.9615 23.5107 13.461 28.418 9.64423C33.0078 6.07262 38.5335 3.98849 44.222 3.4409C47.2087 3.15484 50.236 3.28561 53.1982 3.84138C53.1331 4.11109 53.0762 4.3808 53.0436 4.65868L53.0355 4.70772C52.9785 5.17358 52.9541 5.63944 52.9785 6.11348C52.3519 6.35867 51.7659 6.69377 51.237 7.10242L51.2126 7.11876C50.4232 7.71539 49.7559 8.48366 49.2594 9.36635ZM92.3177 25.0586C92.7734 25.4754 93.2129 25.9086 93.6442 26.3744C94.515 27.3143 95.3369 28.3768 96.11 29.5619C98.7142 33.583 100.049 38.9527 99.9919 44.208C99.9349 49.3651 98.5514 54.4978 95.7194 58.2738C93.8721 60.7338 91.5039 62.7444 88.6637 64.3381C86.7187 65.4333 84.5296 66.3405 82.1452 67.0761V60.742C83.431 60.2598 84.6273 59.7204 85.7259 59.1074C87.8662 57.906 89.6159 56.443 90.9261 54.6858C92.9606 51.9642 93.9616 48.1147 94.0023 44.1671C94.0511 40.0234 93.042 35.8633 91.0807 32.8393C90.5192 31.9648 89.9007 31.1802 89.2497 30.4773C88.9974 30.2076 88.7451 29.9542 88.4847 29.709C88.5254 29.3004 88.5417 28.8835 88.5172 28.4667C89.1439 28.2215 89.7298 27.8864 90.2588 27.4778L90.2832 27.4614C91.1214 26.8158 91.8213 25.9985 92.3177 25.0586ZM71.6797 10.4615C75.4313 10.9764 78.0517 14.45 77.5391 18.2177C77.0264 21.9855 73.5677 24.6254 69.8161 24.1105C66.0644 23.5956 63.4359 20.1221 63.9567 16.3543C64.4775 12.5865 67.9281 9.94663 71.6797 10.4615Z" fill="black"/>
</g>
<defs>
<clipPath id="clip0_213_234">
<rect width="100" height="82" fill="white"/>
</clipPath>
</defs>
</svg>
