<svg width="100" height="100" viewBox="0 0 100 100" fill="none" xmlns="http://www.w3.org/2000/svg">
<g clip-path="url(#clip0_213_237)">
<path opacity="0.2" d="M97.364 56.7832C100.279 53.9704 100.279 49.4416 97.364 46.6288L55.2748 6.0159C52.3595 3.20303 47.6658 3.20303 44.7514 6.0159L2.66216 46.6288C-0.253151 49.4416 -0.253151 53.9704 2.66216 56.7832L44.7514 97.3961C47.6667 100.209 52.3595 100.209 55.2748 97.3961L97.364 56.7832Z" fill="black"/>
<path d="M97.3387 53.3794C100.254 50.5665 100.254 46.0378 97.3387 43.225L55.2495 2.6121C52.3342 -0.200776 47.6405 -0.200776 44.7261 2.6121L2.63693 43.225C-0.278389 46.0378 -0.278389 50.5665 2.63693 53.3794L44.7261 93.9923C47.6414 96.8052 52.3342 96.8052 55.2495 93.9923L97.3387 53.3794Z" fill="#66B744"/>
<path opacity="0.2" fill-rule="evenodd" clip-rule="evenodd" d="M50.0009 14.1523C43.8135 14.1523 38.5279 14.8662 34.064 16.3197L19.9522 29.9365C19.1595 33.1286 18.8009 36.6236 19.0955 38.8989C20.6279 50.7316 33.4883 58.5375 50.0009 58.5375C61.7955 58.5375 67.6847 64.388 67.9207 66.2127C68.0387 67.1256 68.1414 71.0949 65.9649 72.5345C63.7883 73.9741 57.9027 75.6088 50.0009 75.6088C40.3126 75.6088 28.7432 69.6801 28.7432 69.6801C25.0829 67.5801 20.6595 69.1177 18.8811 72.4474L33.3874 86.4454C38.1207 87.9642 43.8513 89.2662 50.0009 89.2662C56.1883 89.2662 61.4739 88.5523 65.9378 87.0989L80.0504 73.4821C80.8432 70.29 81.2018 66.7949 80.9072 64.5197C79.3739 52.688 66.5135 44.8811 50.0009 44.8811C38.2063 44.8811 32.6694 39.0306 32.4333 37.2058C32.3153 36.2929 32.2126 32.3236 34.3892 30.884C36.5658 29.4444 42.0982 27.8098 50.0009 27.8098C59.6892 27.8098 71.2586 33.7385 71.2586 33.7385C74.9189 35.8385 79.3423 34.3018 81.1207 30.9712L66.6153 16.9731C61.882 15.4543 56.1504 14.1523 50.0009 14.1523Z" fill="black"/>
<path fill-rule="evenodd" clip-rule="evenodd" d="M50.0009 10.7378C43.8135 10.7378 38.5279 11.4517 34.064 12.9051L19.9522 26.522C19.1595 29.714 18.8009 33.2091 19.0955 35.4843C20.6279 47.317 33.4883 55.1229 50.0009 55.1229C61.7955 55.1229 67.6847 60.9734 67.9207 62.7982C68.0387 63.7111 68.1414 67.6804 65.9649 69.12C63.7883 70.5596 57.9027 72.1942 50.0009 72.1942C40.3126 72.1942 28.7432 66.2655 28.7432 66.2655C25.0829 64.1655 20.6595 65.7031 18.8811 69.0328L33.3874 83.0309C38.1207 84.5497 43.8513 85.8517 50.0009 85.8517C56.1883 85.8517 61.4739 85.1378 65.9378 83.6843L80.0504 70.0675C80.8432 66.8754 81.2018 63.3804 80.9072 61.1051C79.3748 49.2724 66.5144 41.4665 50.0018 41.4665C38.2072 41.4665 32.6703 35.616 32.4342 33.7913C32.3162 32.8794 32.2135 28.9101 34.3901 27.4695C36.5667 26.0289 42.0991 24.3952 50.0018 24.3952C59.6901 24.3952 71.2595 30.3239 71.2595 30.3239C74.9198 32.4239 79.3432 30.8873 81.1216 27.5566L66.6153 13.5586C61.882 12.0398 56.1504 10.7378 50.0009 10.7378Z" fill="white"/>
<path opacity="0.2" d="M50.0018 0.495117C48.1 0.495117 46.2 1.19611 44.7423 2.60205L2.64774 43.2209C0.733329 45.0674 0.105401 47.6466 0.706302 50.002C1.01982 48.7714 1.64864 47.5991 2.64864 46.6347L44.7423 6.0169C47.6568 3.20403 52.3459 3.20403 55.2604 6.0169L97.355 46.6347C98.355 47.6001 98.9829 48.7714 99.2973 50.002C99.8982 47.6466 99.2703 45.0674 97.355 43.2199L55.2604 2.60205C53.8036 1.19611 51.9036 0.495117 50.0018 0.495117Z" fill="white"/>
</g>
<defs>
<clipPath id="clip0_213_237">
<rect width="100" height="100" fill="white"/>
</clipPath>
</defs>
</svg>
