<svg width="100" height="60" viewBox="0 0 100 60" fill="none" xmlns="http://www.w3.org/2000/svg">
<path d="M50 0C36.6663 0 28.3331 6.66681 24.9994 19.9992C30 13.3324 35.8334 10.8332 42.4997 12.4993C46.3036 13.4499 49.0221 16.2105 52.032 19.2649C56.9339 24.2407 62.6072 29.9994 75.0006 29.9994C88.3331 29.9994 96.6675 23.3326 100 9.99896C95.0006 16.6658 89.1672 19.1661 82.4997 17.5001C78.697 16.5494 75.9785 13.7889 72.9686 10.7344C68.0668 5.75872 62.3921 0 50 0V0ZM24.9994 29.9994C11.6669 29.9994 3.3325 36.6662 0 49.9998C4.99937 43.333 10.8328 40.8326 17.5003 42.4999C21.303 43.4518 24.0215 46.2111 27.0314 49.2643C31.9332 54.24 37.6079 60 50 60C63.3338 60 71.6669 53.3332 75.0006 39.9996C70 46.6664 64.1666 49.1668 57.5003 47.4994C53.6964 46.5501 50.9779 43.7883 47.968 40.7351C43.0662 35.7593 37.3928 29.9994 24.9994 29.9994V29.9994Z" fill="#06B6D4"/>
</svg>
