<svg width="100" height="100" viewBox="0 0 100 100" fill="none" xmlns="http://www.w3.org/2000/svg">
<path d="M0.951416 34.871C0.951416 34.871 -1.48421 33.0963 1.43854 30.7267L8.24814 24.5718C8.24814 24.5718 10.1966 22.4996 12.2568 24.3051L75.0959 72.3954V95.4557C75.0959 95.4557 75.0655 99.0769 70.4682 98.6768L0.951416 34.871Z" fill="#2489CA"/>
<path d="M17.1483 49.7368L0.95141 64.6214C0.95141 64.6214 -0.712936 65.8729 0.95141 68.1092L8.47141 75.0232C8.47141 75.0232 10.2575 76.962 12.8961 74.7565L30.0673 61.5952L17.1483 49.7368Z" fill="#1070B3"/>
<path d="M45.5843 49.8586L75.2889 26.9316L75.0961 3.99424C75.0961 3.99424 73.8275 -1.01176 69.5956 1.59382L30.0674 37.9591L45.5843 49.8586Z" fill="#0877B9"/>
<path d="M70.4683 98.7082C72.1936 100.493 74.2842 99.9084 74.2842 99.9084L97.4327 88.3782C100.396 86.3368 99.98 83.803 99.98 83.803V14.9501C99.98 11.9239 96.9152 10.8776 96.9152 10.8776L76.8517 1.10157C72.4676 -1.63737 69.5956 1.59396 69.5956 1.59396C69.5956 1.59396 73.2896 -1.09368 75.096 3.99437V95.0357C75.096 95.6615 74.9641 96.277 74.7002 96.8309C74.1725 97.908 73.0258 98.9133 70.2755 98.4928L70.4683 98.7082Z" fill="#3C99D4"/>
</svg>
