<svg width="100" height="100" viewBox="0 0 100 100" fill="none" xmlns="http://www.w3.org/2000/svg">
<g clip-path="url(#clip0_211_150)">
<path d="M86.2458 73.95C93.1875 73.95 95.7541 69.1083 98.1666 61.85C100.667 54.375 100.558 47.1833 98.1666 37.6083C96.4458 30.7125 93.1916 25.5083 86.2458 25.5083H77.3V36.0958C77.3 44.3083 70.3333 51.2291 62.3916 51.2291H38.55C32.0292 51.2291 26.6292 56.8083 26.6292 63.35V86.075C26.6292 92.5458 32.2542 96.3416 38.55 98.1958C46.0916 100.404 53.35 100.804 62.3875 98.1958C68.3916 96.4541 74.3083 92.9458 74.3083 86.075V76.9875H50.4875V73.9541H86.2458V73.95ZM63.8833 83.0375C66.3583 83.0375 68.3708 85.0708 68.3708 87.5708C68.3708 90.0958 66.3625 92.125 63.8833 92.125C62.686 92.1107 61.5428 91.6242 60.7024 90.7713C59.862 89.9184 59.3924 88.7682 59.3958 87.5708C59.3958 86.3764 59.8671 85.2302 60.7074 84.3813C61.5476 83.5325 62.689 83.0495 63.8833 83.0375Z" fill="#F2BB30"/>
<path d="M14.35 73.9543H22.5417V63.0585C22.5417 55.1793 29.35 48.2335 37.45 48.2335H61.2875C67.9167 48.2335 73.2083 42.7668 73.2083 36.1127V13.371C73.2083 6.90017 67.7625 2.05017 61.2875 0.962666C53.2958 -0.358167 44.6125 -0.283167 37.45 0.987666L37.4542 0.9835C27.3625 2.76683 25.5375 6.49183 25.5375 13.3877V22.4752H49.4V25.5127H16.5833C9.64167 25.5127 3.56667 29.6877 1.675 37.6127C-0.512498 46.7002 -0.599998 52.3668 1.675 61.8543C3.36667 68.9085 7.4125 73.9543 14.35 73.9543ZM35.9583 16.4043C34.7626 16.3966 33.6187 15.9151 32.7775 15.0653C31.9363 14.2154 31.4664 13.0667 31.4708 11.871C31.4664 10.6733 31.9356 9.52243 32.7762 8.6693C33.6169 7.81618 34.7607 7.33002 35.9583 7.31683C38.4167 7.31683 40.4458 9.36683 40.4458 11.871C40.4458 14.3752 38.4375 16.4043 35.9583 16.4043Z" fill="#35668F"/>
</g>
<defs>
<clipPath id="clip0_211_150">
<rect width="100" height="100" fill="white"/>
</clipPath>
</defs>
</svg>
