<svg width="100" height="100" viewBox="0 0 100 100" fill="none" xmlns="http://www.w3.org/2000/svg">
<g clip-path="url(#clip0_211_148)">
<path d="M0 50V100H100V0H0V50ZM60.6792 81.775C61.1292 81.5208 62.8083 80.55 64.3958 79.6292L67.2708 77.9625L67.875 78.8542C68.7167 80.1375 70.5542 81.9 71.6667 82.4875C74.8583 84.1708 79.2375 83.9333 81.3958 81.9958C81.8062 81.6511 82.136 81.2207 82.3621 80.7347C82.5881 80.2488 82.7049 79.7193 82.7042 79.1833L82.7 78.9875V78.9958C82.7 77.8375 82.5542 77.3292 81.95 76.4542C81.175 75.3458 79.5875 74.4125 75.0792 72.4542C69.9208 70.2333 67.7 68.8542 65.6667 66.6625C64.4167 65.2415 63.4885 63.5672 62.9458 61.7542L62.9208 61.6625C62.5417 60.25 62.4458 56.7083 62.7458 55.2833C63.8083 50.2958 67.5708 46.825 73 45.7917C74.7625 45.4583 78.8583 45.5833 80.5875 46.0125C83.1292 46.6458 85.0625 47.7792 86.8417 49.6208C87.7625 50.6042 89.1292 52.3958 89.2375 52.8292C89.2708 52.9542 84.9208 55.8708 82.2875 57.5083C82.1917 57.5708 81.8083 57.1583 81.3833 56.525C80.0917 54.65 78.7458 53.8417 76.6833 53.7C73.65 53.4917 71.7 55.0792 71.7167 57.7292L71.7125 57.8833C71.7125 58.5125 71.8708 59.1042 72.15 59.6208L72.1417 59.6C72.8083 60.9792 74.05 61.8083 77.9333 63.4875C85.0958 66.5708 88.1583 68.6 90.0625 71.4875C92.1875 74.7083 92.6667 79.8542 91.2208 83.6792C89.6375 87.8375 85.7 90.6625 80.1583 91.5958C78.4458 91.9 74.3833 91.8542 72.5417 91.5208C68.525 90.8042 64.7167 88.8208 62.3667 86.2167C61.4458 85.2042 59.65 82.55 59.7625 82.3625C60.0513 82.1417 60.3579 81.9452 60.6792 81.775ZM21.9083 50.2708C21.9083 48.0458 21.9542 46.1875 22.0167 46.1458C22.0667 46.0792 29.9875 46.0458 39.5875 46.0625L57.0667 46.1125L57.1125 50.1917L57.1458 54.2875H44.125V91.2708H34.9167V54.2875H21.9083V50.2708Z" fill="#1677C7"/>
</g>
<defs>
<clipPath id="clip0_211_148">
<rect width="100" height="100" fill="white"/>
</clipPath>
</defs>
</svg>
